<?xml version="1.0" encoding="utf-8"?>
<!-- Generator: Adobe Illustrator 24.1.2, SVG Export Plug-In . SVG Version: 6.00 Build 0)  -->
<svg version="1.1" id="Ebene_1" xmlns="http://www.w3.org/2000/svg" xmlns:xlink="http://www.w3.org/1999/xlink" x="0px" y="0px"
	 viewBox="0 0 480.5 178.8" style="enable-background:new 0 0 480.5 178.8;" xml:space="preserve">
<style type="text/css">
	.st0{fill:#36495E;}
	.st1{fill:#FFFFFF;}
	.st2{fill:#ED8571;}
</style>
<g id="Layer_2">
	<g id="Layer_1-2">
		<path class="st0" d="M281,25.4h52.4c0.7,0,1.4,0.6,1.4,1.4v102c0,0.7-0.6,1.4-1.4,1.4H281c-0.7,0-1.4-0.6-1.4-1.4v-102
			C279.6,26,280.3,25.4,281,25.4z"/>
		<path class="st0" d="M339.2,0h70.3c0.7,0,1.4,0.6,1.4,1.4v117.5c0,0.7-0.6,1.3-1.4,1.3h-70.3c-0.7,0-1.4-0.6-1.4-1.3V1.4
			C337.9,0.6,338.5,0,339.2,0z"/>
		<path class="st0" d="M415.6,15.7h63.5c0.7,0,1.4,0.6,1.4,1.3v113.3c0,0.7-0.6,1.4-1.4,1.4h-63.5c-0.7,0-1.4-0.6-1.4-1.4V17.1
			C414.3,16.3,414.9,15.7,415.6,15.7z"/>
		<path class="st0" d="M208.9,10.4h73.9c0.7,0,1.4,0.6,1.4,1.4v102c0,0.7-0.6,1.3-1.4,1.3h-73.9c-0.7,0-1.4-0.6-1.4-1.3v-102
			C207.6,11,208.2,10.4,208.9,10.4z"/>
		<path class="st1" d="M232.2,172.8V57.4H442c17.9,0,32.5,14.6,32.5,32.5v50.4c0,17.9-14.6,32.5-32.5,32.5H232.2z"/>
		<path class="st0" d="M442,63.4c14.6,0,26.5,11.9,26.5,26.5v50.4c0,14.6-11.9,26.5-26.5,26.5H238.2V63.4H442 M442,51.4H226.2v127.4
			H442c21.3,0,38.5-17.2,38.5-38.5V89.9C480.5,68.6,463.3,51.4,442,51.4L442,51.4z"/>
		<path class="st2" d="M226.2,51.4H36.7C16.4,51.4,0,68.7,0,89.9v50.4c0,21.3,16.4,38.5,36.7,38.5h189.6V51.4z"/>
	</g>
</g>
<path class="st1" d="M71.3,115.3c0,3.9-0.6,7.4-1.9,10.8c-1.3,3.3-3.1,6.2-5.4,8.7c-2.3,2.5-5.2,4.4-8.4,5.8
	c-3.3,1.4-6.9,2.1-11,2.1s-7.7-0.7-11-2.1c-3.3-1.4-6.1-3.3-8.5-5.8c-2.4-2.5-4.2-5.3-5.5-8.7c-1.3-3.3-1.9-6.9-1.9-10.8
	c0-3.9,0.6-7.4,1.9-10.8c1.3-3.3,3.1-6.2,5.5-8.6c2.3-2.4,5.2-4.4,8.5-5.7c3.3-1.4,7-2.1,11-2.1s7.7,0.7,11,2.1
	c3.3,1.4,6.1,3.3,8.4,5.8c2.3,2.4,4.1,5.3,5.4,8.6C70.7,107.9,71.3,111.5,71.3,115.3z M59.1,115.3c0-2.6-0.3-5-1-7.1
	c-0.7-2.1-1.6-3.9-2.9-5.4c-1.2-1.5-2.8-2.6-4.6-3.4c-1.8-0.8-3.8-1.2-6.1-1.2c-2.3,0-4.4,0.4-6.2,1.2c-1.8,0.8-3.3,1.9-4.6,3.4
	c-1.2,1.5-2.2,3.3-2.9,5.4c-0.7,2.1-1,4.5-1,7.1c0,2.7,0.3,5,1,7.2c0.7,2.1,1.6,3.9,2.9,5.4c1.2,1.5,2.8,2.6,4.6,3.3
	c1.8,0.8,3.9,1.2,6.2,1.2c2.3,0,4.3-0.4,6.1-1.2c1.8-0.8,3.3-1.9,4.6-3.3c1.2-1.5,2.2-3.3,2.9-5.4C58.8,120.3,59.1,117.9,59.1,115.3
	z"/>
<path class="st1" d="M128,115.3c0,3.9-0.6,7.4-1.9,10.8c-1.3,3.3-3.1,6.2-5.4,8.7s-5.2,4.4-8.4,5.8s-6.9,2.1-11,2.1
	c-4,0-7.7-0.7-11-2.1c-3.3-1.4-6.1-3.3-8.5-5.8c-2.4-2.5-4.2-5.3-5.5-8.7c-1.3-3.3-1.9-6.9-1.9-10.8c0-3.9,0.6-7.4,1.9-10.8
	c1.3-3.3,3.1-6.2,5.5-8.6c2.3-2.4,5.2-4.4,8.5-5.7c3.3-1.4,7-2.1,11-2.1c4,0,7.7,0.7,11,2.1c3.3,1.4,6.1,3.3,8.4,5.8
	c2.3,2.4,4.1,5.3,5.4,8.6C127.4,107.9,128,111.5,128,115.3z M115.8,115.3c0-2.6-0.3-5-1-7.1c-0.7-2.1-1.6-3.9-2.9-5.4
	c-1.2-1.5-2.8-2.6-4.6-3.4c-1.8-0.8-3.8-1.2-6.1-1.2c-2.3,0-4.4,0.4-6.2,1.2c-1.8,0.8-3.3,1.9-4.6,3.4c-1.2,1.5-2.2,3.3-2.9,5.4
	c-0.7,2.1-1,4.5-1,7.1c0,2.7,0.3,5,1,7.2c0.7,2.1,1.6,3.9,2.9,5.4c1.2,1.5,2.8,2.6,4.6,3.3c1.8,0.8,3.9,1.2,6.2,1.2
	c2.3,0,4.3-0.4,6.1-1.2c1.8-0.8,3.3-1.9,4.6-3.3c1.2-1.5,2.2-3.3,2.9-5.4C115.4,120.3,115.8,117.9,115.8,115.3z"/>
<path class="st1" d="M145.7,124.1V142h-12V88.6H152c3.6,0,6.8,0.4,9.4,1.3c2.6,0.9,4.8,2.1,6.4,3.7s2.9,3.4,3.7,5.5
	c0.8,2.1,1.2,4.4,1.2,6.9c0,2.7-0.4,5.1-1.2,7.3c-0.8,2.2-2.1,4.1-3.8,5.7c-1.7,1.6-3.9,2.8-6.5,3.7c-2.6,0.9-5.7,1.3-9.3,1.3H145.7
	z M145.7,114.8h6.2c3.1,0,5.4-0.8,6.7-2.3c1.4-1.5,2.1-3.7,2.1-6.4c0-1.2-0.2-2.3-0.5-3.3s-0.9-1.9-1.6-2.6
	c-0.7-0.7-1.6-1.3-2.7-1.7c-1.1-0.4-2.4-0.6-3.9-0.6h-6.2V114.8z"/>
<path class="st1" d="M207.7,99.5c-0.4,0.6-0.7,1-1.1,1.3c-0.4,0.3-0.9,0.4-1.5,0.4c-0.5,0-1.1-0.2-1.8-0.5c-0.6-0.4-1.3-0.8-2.1-1.2
	c-0.8-0.4-1.7-0.8-2.7-1.2c-1-0.4-2.2-0.5-3.5-0.5c-2.2,0-3.9,0.5-5,1.5c-1.1,1-1.6,2.3-1.6,4c0,1.1,0.3,2,1,2.7
	c0.7,0.7,1.5,1.3,2.6,1.8c1.1,0.5,2.3,1,3.7,1.4c1.4,0.4,2.8,0.9,4.2,1.4c1.4,0.5,2.9,1.1,4.2,1.8c1.4,0.7,2.6,1.6,3.7,2.7
	c1.1,1.1,1.9,2.4,2.6,4c0.7,1.6,1,3.5,1,5.7c0,2.5-0.4,4.8-1.2,6.9c-0.8,2.1-2,4-3.6,5.6c-1.6,1.6-3.5,2.9-5.8,3.8s-4.9,1.4-7.8,1.4
	c-1.6,0-3.2-0.2-4.9-0.5c-1.7-0.3-3.3-0.8-4.8-1.4c-1.6-0.6-3-1.4-4.4-2.2s-2.6-1.8-3.6-2.9l3.5-5.8c0.3-0.4,0.6-0.8,1.1-1.1
	c0.5-0.3,1-0.4,1.5-0.4c0.7,0,1.4,0.2,2.1,0.7c0.7,0.5,1.5,1,2.4,1.5c0.9,0.6,2,1.1,3.1,1.5c1.2,0.5,2.6,0.7,4.2,0.7
	c2.2,0,3.9-0.5,5.1-1.5c1.2-1,1.8-2.6,1.8-4.7c0-1.2-0.3-2.3-1-3c-0.7-0.8-1.5-1.4-2.6-1.9c-1.1-0.5-2.3-1-3.7-1.4
	c-1.4-0.4-2.8-0.8-4.2-1.3c-1.4-0.5-2.8-1.1-4.2-1.8c-1.4-0.7-2.6-1.6-3.7-2.7c-1.1-1.1-1.9-2.5-2.6-4.2c-0.7-1.7-1-3.8-1-6.3
	c0-2,0.4-4,1.2-5.9c0.8-1.9,1.9-3.6,3.4-5.1c1.5-1.5,3.4-2.7,5.6-3.6s4.7-1.3,7.5-1.3c1.6,0,3.1,0.1,4.6,0.4
	c1.5,0.3,2.9,0.6,4.3,1.1c1.3,0.5,2.6,1.1,3.8,1.8c1.2,0.7,2.2,1.5,3.1,2.4L207.7,99.5z"/>
<path class="st0" d="M317.3,121.2h5.3v6.4c0,0.6-0.2,1-0.5,1.5c-0.4,0.4-0.9,0.6-1.6,0.6h-3.2V142h-9.6v-12.3H287
	c-0.7,0-1.3-0.2-1.9-0.7c-0.6-0.4-0.9-1-1-1.6l-1.1-5.6l23.9-33.2h10.5V121.2z M307.8,107.3c0-0.9,0-1.8,0.1-2.8s0.1-2,0.3-3.1
	l-13.6,19.7h13.3V107.3z"/>
<path class="st0" d="M363.5,115.3c0,4.7-0.5,8.7-1.5,12.1c-1,3.4-2.3,6.2-4,8.5c-1.7,2.2-3.7,3.9-6.1,5c-2.4,1.1-4.9,1.6-7.6,1.6
	c-2.7,0-5.3-0.6-7.6-1.6c-2.3-1.1-4.3-2.8-6-5c-1.7-2.2-3-5.1-4-8.5c-1-3.4-1.4-7.5-1.4-12.1c0-4.7,0.5-8.7,1.4-12.1
	c1-3.4,2.3-6.2,4-8.5c1.7-2.2,3.7-3.9,6-5c2.3-1.1,4.9-1.6,7.6-1.6c2.7,0,5.3,0.5,7.6,1.6c2.3,1.1,4.4,2.7,6.1,5
	c1.7,2.2,3.1,5.1,4,8.5S363.5,110.6,363.5,115.3z M352.2,115.3c0-3.7-0.2-6.7-0.7-9.1c-0.4-2.4-1-4.2-1.8-5.5
	c-0.7-1.3-1.6-2.3-2.5-2.8c-0.9-0.5-1.9-0.8-2.9-0.8s-1.9,0.3-2.9,0.8c-0.9,0.5-1.8,1.4-2.5,2.8c-0.7,1.3-1.3,3.2-1.7,5.5
	c-0.4,2.4-0.7,5.4-0.7,9.1c0,3.7,0.2,6.7,0.7,9.1c0.4,2.3,1,4.2,1.7,5.5c0.7,1.4,1.5,2.3,2.5,2.8c0.9,0.5,1.9,0.8,2.9,0.8
	s1.9-0.3,2.9-0.8c0.9-0.5,1.8-1.4,2.5-2.8c0.7-1.4,1.3-3.2,1.8-5.5C352,122,352.2,119,352.2,115.3z"/>
<path class="st0" d="M399.5,121.2h5.3v6.4c0,0.6-0.2,1-0.5,1.5c-0.4,0.4-0.9,0.6-1.6,0.6h-3.2V142H390v-12.3h-20.8
	c-0.7,0-1.3-0.2-1.9-0.7c-0.6-0.4-0.9-1-1-1.6l-1.1-5.6L389,88.6h10.5V121.2z M390,107.3c0-0.9,0-1.8,0.1-2.8s0.1-2,0.3-3.1
	l-13.6,19.7H390V107.3z"/>
</svg>
