<svg xmlns="http://www.w3.org/2000/svg" viewBox="0 0 426.78 201.33"><defs><style>.cls-1{fill:#ed8571;}.cls-2{fill:#36495e;}.cls-3{fill:#fff;}</style></defs><g id="Layer_2" data-name="Layer 2"><g id="Layer_1-2" data-name="Layer 1"><circle class="cls-1" cx="199.42" cy="100.67" r="100.54"/><path class="cls-1" d="M199.42.25A100.42,100.42,0,1,1,99,100.67,100.42,100.42,0,0,1,199.42.25m0-.25A100.67,100.67,0,1,0,300.09,100.67,100.78,100.78,0,0,0,199.42,0Z"/><rect class="cls-2" y="41.21" width="426.61" height="127.42" rx="38.5"/><path class="cls-3" d="M0,131.76V78.08H19.75a38,38,0,0,1,9.47,1A18.17,18.17,0,0,1,35.59,82a11.07,11.07,0,0,1,3.59,4.57,15.47,15.47,0,0,1,1.13,6,11.92,11.92,0,0,1-.52,3.48,10,10,0,0,1-1.62,3.15,12.16,12.16,0,0,1-2.84,2.67A18.14,18.14,0,0,1,31.17,104q5.31,1.29,7.85,4.18a10.88,10.88,0,0,1,2.54,7.43A15.24,15.24,0,0,1,40.23,122a14.55,14.55,0,0,1-3.88,5.14A18.67,18.67,0,0,1,30,130.53a27.61,27.61,0,0,1-8.59,1.23Zm12.45-31.09h6.49a21.07,21.07,0,0,0,3.72-.3,7.73,7.73,0,0,0,2.82-1,4.8,4.8,0,0,0,1.77-2,7.68,7.68,0,0,0,.6-3.24,9.12,9.12,0,0,0-.48-3.19,4.64,4.64,0,0,0-1.47-2,6.21,6.21,0,0,0-2.52-1.11,17.42,17.42,0,0,0-3.63-.33h-7.3Zm0,8.32v13.38h8.77a11,11,0,0,0,4-.63,6.47,6.47,0,0,0,2.45-1.62,5.37,5.37,0,0,0,1.21-2.25,9.89,9.89,0,0,0,.33-2.54,8.69,8.69,0,0,0-.38-2.65,4.36,4.36,0,0,0-1.33-2,6.55,6.55,0,0,0-2.49-1.26,14.65,14.65,0,0,0-3.9-.44Z"/><path class="cls-3" d="M75.09,111.35v20.41H62.63V111.35L43.18,78.08h11a4,4,0,0,1,2.58.76,5.7,5.7,0,0,1,1.55,1.93l7.58,15.62,1.7,3.47c.52,1,1,2.1,1.36,3.13a28.5,28.5,0,0,1,1.33-3.17c.51-1.06,1.07-2.2,1.66-3.43l7.51-15.62a4.66,4.66,0,0,1,.61-1,5.19,5.19,0,0,1,.89-.86,4.18,4.18,0,0,1,1.14-.63,4,4,0,0,1,1.42-.24H94.54Z"/><path class="cls-3" d="M120.55,122.77a21.54,21.54,0,0,0,4.57-.44,22.28,22.28,0,0,0,3.76-1.18V113h-5.31a2.55,2.55,0,0,1-1.84-.63,2.08,2.08,0,0,1-.66-1.58V104h19.08V126.6a28,28,0,0,1-4.29,2.6A27.53,27.53,0,0,1,131.1,131a36,36,0,0,1-5.37,1,53.68,53.68,0,0,1-6.14.33,28.07,28.07,0,0,1-10.9-2.08,26.14,26.14,0,0,1-14.43-14.44,28.3,28.3,0,0,1-2.08-10.93,29.65,29.65,0,0,1,2-11,24.9,24.9,0,0,1,5.69-8.68,25.83,25.83,0,0,1,9-5.67,32.46,32.46,0,0,1,11.74-2,35,35,0,0,1,6.3.55,30.88,30.88,0,0,1,5.43,1.52,24.48,24.48,0,0,1,4.55,2.28,24.12,24.12,0,0,1,3.69,2.87l-3.61,5.49a4.11,4.11,0,0,1-1.24,1.22,3,3,0,0,1-1.56.44,4.26,4.26,0,0,1-2.29-.74c-1-.59-1.91-1.09-2.78-1.53a19,19,0,0,0-2.67-1A18.46,18.46,0,0,0,123.5,88a26.79,26.79,0,0,0-3.39-.19,15.3,15.3,0,0,0-6.3,1.24A13.38,13.38,0,0,0,109,92.49a15.6,15.6,0,0,0-3,5.39,21.55,21.55,0,0,0-1.07,7,22.49,22.49,0,0,0,1.18,7.59,16.15,16.15,0,0,0,3.26,5.6,13.68,13.68,0,0,0,4.93,3.48A16,16,0,0,0,120.55,122.77Z"/><path class="cls-3" d="M173,122.77a21.54,21.54,0,0,0,4.57-.44,22,22,0,0,0,3.76-1.18V113H176a2.57,2.57,0,0,1-1.84-.63,2.08,2.08,0,0,1-.66-1.58V104h19.08V126.6a27.1,27.1,0,0,1-4.29,2.6,27.73,27.73,0,0,1-4.75,1.79,36.13,36.13,0,0,1-5.38,1,53.56,53.56,0,0,1-6.14.33,28.07,28.07,0,0,1-10.9-2.08,26.08,26.08,0,0,1-14.42-14.44,28.3,28.3,0,0,1-2.09-10.93,29.85,29.85,0,0,1,2-11,24.93,24.93,0,0,1,5.7-8.68,25.74,25.74,0,0,1,8.95-5.67,32.37,32.37,0,0,1,11.73-2,34.85,34.85,0,0,1,6.3.55,31,31,0,0,1,5.44,1.52,24.8,24.8,0,0,1,4.55,2.28A24.52,24.52,0,0,1,193,84.71l-3.61,5.49a4,4,0,0,1-1.23,1.22,3,3,0,0,1-1.57.44,4.21,4.21,0,0,1-2.28-.74c-1-.59-1.91-1.09-2.79-1.53a19,19,0,0,0-2.67-1A18.22,18.22,0,0,0,176,88a26.79,26.79,0,0,0-3.39-.19,15.37,15.37,0,0,0-6.3,1.24,13.38,13.38,0,0,0-4.77,3.48,15.76,15.76,0,0,0-3,5.39,21.82,21.82,0,0,0-1.07,7,22.49,22.49,0,0,0,1.18,7.59,16.31,16.31,0,0,0,3.26,5.6,13.63,13.63,0,0,0,4.94,3.48A15.92,15.92,0,0,0,173,122.77Z"/><path class="cls-1" d="M222.34,78.16a3.42,3.42,0,0,1,1,.27,3.72,3.72,0,0,1,.85.57,10.85,10.85,0,0,1,.92,1l25.49,32.23c-.1-1-.17-2-.22-3s-.07-1.88-.07-2.74V78.08h11v53.68H254.8a6,6,0,0,1-2.43-.44,5.39,5.39,0,0,1-1.92-1.62l-25.31-32c.08.93.14,1.85.19,2.74s.07,1.74.07,2.53v28.77h-11V78.08H221A10.14,10.14,0,0,1,222.34,78.16Z"/><path class="cls-1" d="M323.11,104.9a28.82,28.82,0,0,1-2,10.83,25.61,25.61,0,0,1-14.44,14.52,32.07,32.07,0,0,1-22.83,0,25.58,25.58,0,0,1-14.49-14.52,30.18,30.18,0,0,1,0-21.66A25.61,25.61,0,0,1,275,85.38a26.12,26.12,0,0,1,8.82-5.79,30.06,30.06,0,0,1,11.43-2.1,29.71,29.71,0,0,1,11.4,2.12,26.37,26.37,0,0,1,8.78,5.8,25.87,25.87,0,0,1,5.66,8.7A28.72,28.72,0,0,1,323.11,104.9Zm-12.75,0a23.1,23.1,0,0,0-1-7.16,15.14,15.14,0,0,0-3-5.4A12.84,12.84,0,0,0,301.63,89a16.22,16.22,0,0,0-6.37-1.18A16.42,16.42,0,0,0,288.83,89a12.87,12.87,0,0,0-4.76,3.39,15,15,0,0,0-3,5.4,23.1,23.1,0,0,0-1,7.16,23.33,23.33,0,0,0,1,7.21,15,15,0,0,0,3,5.39,12.49,12.49,0,0,0,4.76,3.37,16.61,16.61,0,0,0,6.43,1.17,16.4,16.4,0,0,0,6.37-1.17,12.46,12.46,0,0,0,4.73-3.37,15.18,15.18,0,0,0,3-5.39A23.33,23.33,0,0,0,310.36,104.9Z"/><path class="cls-1" d="M341.53,111.9v19.86H329.08V78.08h17.46a35.78,35.78,0,0,1,9.93,1.2,18.69,18.69,0,0,1,6.7,3.33,12.64,12.64,0,0,1,3.78,5A16.64,16.64,0,0,1,368.13,94a16.84,16.84,0,0,1-.7,4.93,15.15,15.15,0,0,1-2.08,4.3,16.34,16.34,0,0,1-3.39,3.52,18.21,18.21,0,0,1-4.63,2.54,11.68,11.68,0,0,1,2.34,1.54,9.29,9.29,0,0,1,1.9,2.25L373,131.76H361.72a4.78,4.78,0,0,1-4.5-2.36l-8.91-15.58a3.73,3.73,0,0,0-1.38-1.47,4.56,4.56,0,0,0-2.23-.45Zm0-8.58h5a12.82,12.82,0,0,0,4.33-.65,7.83,7.83,0,0,0,2.93-1.78,6.88,6.88,0,0,0,1.66-2.67,10.37,10.37,0,0,0,.51-3.3,6.94,6.94,0,0,0-2.3-5.53c-1.54-1.32-3.91-2-7.13-2h-5Z"/><path class="cls-1" d="M426.78,104.9a28.32,28.32,0,0,1-2,10.74,25.12,25.12,0,0,1-5.66,8.51,25.56,25.56,0,0,1-8.79,5.6,31,31,0,0,1-11.4,2H378.08V78.08h20.85a30.8,30.8,0,0,1,11.4,2,26,26,0,0,1,8.79,5.6,24.94,24.94,0,0,1,5.66,8.49A28.22,28.22,0,0,1,426.78,104.9Zm-12.74,0a23.31,23.31,0,0,0-1-7.18,15.25,15.25,0,0,0-3-5.44,13,13,0,0,0-4.74-3.42,16,16,0,0,0-6.37-1.2H390.6v34.52h8.33A16.19,16.19,0,0,0,405.3,121a13,13,0,0,0,4.74-3.43,15.25,15.25,0,0,0,3-5.44A23.39,23.39,0,0,0,414,104.9Z"/></g></g></svg>