<svg xmlns="http://www.w3.org/2000/svg" viewBox="0 0 206.53 47.2"><defs><style>.cls-1{fill:#188c3b;}.cls-2{fill:#1d1d1b;}.cls-3{fill:#188c3c;}</style></defs><g id="Ebene_2" data-name="Ebene 2"><g id="Ebene_1-2" data-name="Ebene 1"><path class="cls-1" d="M80.31,17a4.32,4.32,0,0,0,1.43,1.72,6.07,6.07,0,0,0,2.17.91,12,12,0,0,0,2.67.28,7.75,7.75,0,0,0,1.77-.23A6.44,6.44,0,0,0,90.14,19a4.43,4.43,0,0,0,1.38-1.31,3.31,3.31,0,0,0,.56-1.94,2.77,2.77,0,0,0-.4-1.51,3.68,3.68,0,0,0-1-1.07,6,6,0,0,0-1.38-.71A13.3,13.3,0,0,0,87.8,12l-4.62-1.13a13.42,13.42,0,0,1-1.76-.58,4.82,4.82,0,0,1-1.49-.93,4.36,4.36,0,0,1-1-1.42,4.78,4.78,0,0,1-.4-2.07,6.75,6.75,0,0,1,.29-1.77,5,5,0,0,1,1.09-1.92A6.51,6.51,0,0,1,82.08.62,8.9,8.9,0,0,1,85.65,0a10.49,10.49,0,0,1,2.94.41A7.26,7.26,0,0,1,91,1.63a5.9,5.9,0,0,1,2.3,4.82h-2a4.88,4.88,0,0,0-.54-2.08,4.72,4.72,0,0,0-1.25-1.48A5.68,5.68,0,0,0,87.79,2a7.32,7.32,0,0,0-2.11-.3,9,9,0,0,0-2,.21,5.07,5.07,0,0,0-1.66.7,3.59,3.59,0,0,0-1.14,1.27,3.84,3.84,0,0,0-.44,1.94,2.94,2.94,0,0,0,.25,1.27,2.56,2.56,0,0,0,.68.91,3.27,3.27,0,0,0,1,.61A7.43,7.43,0,0,0,83.62,9l5.06,1.25a15.24,15.24,0,0,1,2.07.71A6.88,6.88,0,0,1,92.47,12a4.41,4.41,0,0,1,1.16,1.53,5.11,5.11,0,0,1,.42,2.18,7.54,7.54,0,0,1-.07.93,5,5,0,0,1-.35,1.23,6.08,6.08,0,0,1-.78,1.32,5,5,0,0,1-1.4,1.21,7.94,7.94,0,0,1-2.19.87,12.94,12.94,0,0,1-3.14.34,12.66,12.66,0,0,1-3.4-.43A7.35,7.35,0,0,1,80,19.88a5.79,5.79,0,0,1-1.7-2.24,7.39,7.39,0,0,1-.51-3.28h2A5.79,5.79,0,0,0,80.31,17Z"/><path class="cls-1" d="M102.8,6.19V7.73h-3V17.85a3.21,3.21,0,0,0,.25,1.41c.16.34.57.52,1.23.56s1,0,1.57-.08v1.54l-.81,0c-.27,0-.55,0-.82,0a3.57,3.57,0,0,1-2.55-.71,3.55,3.55,0,0,1-.7-2.63V7.73H95.3V6.19h2.62V1.69h1.83v4.5Z"/><path class="cls-1" d="M105.82,8.52A4.18,4.18,0,0,1,107.09,7a5.24,5.24,0,0,1,1.87-.9,8.88,8.88,0,0,1,2.39-.3,11,11,0,0,1,2,.19,4.91,4.91,0,0,1,1.78.72,3.87,3.87,0,0,1,1.27,1.46,5.3,5.3,0,0,1,.5,2.46v8a1,1,0,0,0,1.07,1.11,1.34,1.34,0,0,0,.58-.12v1.54l-.56.09a5.41,5.41,0,0,1-.63,0,2.75,2.75,0,0,1-1.12-.19,1.52,1.52,0,0,1-.65-.54,2,2,0,0,1-.3-.83,6.83,6.83,0,0,1-.08-1.06h-.06a12,12,0,0,1-1,1.3,5.28,5.28,0,0,1-1.13.94,5.1,5.1,0,0,1-1.43.58,7.5,7.5,0,0,1-1.9.21,7.68,7.68,0,0,1-2-.25,4.44,4.44,0,0,1-1.6-.79A3.73,3.73,0,0,1,105,19.2a4.57,4.57,0,0,1-.39-2,3.85,3.85,0,0,1,.7-2.46,4.35,4.35,0,0,1,1.85-1.35,10.58,10.58,0,0,1,2.58-.66l2.92-.36c.39,0,.73-.09,1-.14a1.8,1.8,0,0,0,.73-.31,1.4,1.4,0,0,0,.45-.6,2.67,2.67,0,0,0,.16-1,3.28,3.28,0,0,0-.31-1.53,2.32,2.32,0,0,0-.84-.94,3.2,3.2,0,0,0-1.25-.48,8.23,8.23,0,0,0-1.53-.13,4.65,4.65,0,0,0-2.85.82,3.28,3.28,0,0,0-1.16,2.66h-1.83A6.1,6.1,0,0,1,105.82,8.52ZM115,13a1.05,1.05,0,0,1-.67.47,8.58,8.58,0,0,1-.87.2q-1.17.21-2.4.36a13.9,13.9,0,0,0-2.25.48,4.4,4.4,0,0,0-1.67.92,2.17,2.17,0,0,0-.66,1.7,2.61,2.61,0,0,0,.28,1.24,3,3,0,0,0,.74.92,3.05,3.05,0,0,0,1.07.6,3.86,3.86,0,0,0,1.26.2,6.39,6.39,0,0,0,2-.31,5,5,0,0,0,1.67-.94,4.39,4.39,0,0,0,1.14-1.48,4.48,4.48,0,0,0,.42-2V13ZM107.68.67h2V3.6h-2Zm5.15,0h2V3.6h-2Z"/><path class="cls-1" d="M122.39.44V21.19h-1.83V.44Z"/><path class="cls-1" d="M127.77.44V21.19h-1.83V.44Z"/><path class="cls-1" d="M133.09,6.19V8.78h0A4.45,4.45,0,0,1,135,6.58a5.51,5.51,0,0,1,2.94-.83,7.41,7.41,0,0,1,2.63.41,4,4,0,0,1,2.6,3,9.89,9.89,0,0,1,.26,2.41v9.65H141.6V11.83a9.14,9.14,0,0,0-.17-1.79,3.9,3.9,0,0,0-.61-1.44,3.13,3.13,0,0,0-1.18-1,4.35,4.35,0,0,0-1.84-.34,4.71,4.71,0,0,0-2,.39,4.31,4.31,0,0,0-1.45,1.07,4.92,4.92,0,0,0-.93,1.63,6.72,6.72,0,0,0-.36,2v8.75h-1.83v-15Z"/><path class="cls-1" d="M148.75.44V3.37h-1.83V.44Zm0,5.75v15h-1.83v-15Z"/><path class="cls-1" d="M154.07,6.19V8.78h.06A4.45,4.45,0,0,1,156,6.58a5.49,5.49,0,0,1,2.94-.83,7.45,7.45,0,0,1,2.63.41,4.27,4.27,0,0,1,1.7,1.15,4.39,4.39,0,0,1,.9,1.82,10.41,10.41,0,0,1,.26,2.41v9.65h-1.83V11.83a8.42,8.42,0,0,0-.18-1.79,3.74,3.74,0,0,0-.61-1.44,3.09,3.09,0,0,0-1.17-1,4.4,4.4,0,0,0-1.85-.34,4.66,4.66,0,0,0-2,.39,4.22,4.22,0,0,0-1.45,1.07,5.12,5.12,0,0,0-.94,1.63,6.72,6.72,0,0,0-.36,2v8.75h-1.83v-15Z"/><path class="cls-1" d="M180.19,23A6,6,0,0,1,179,25.23a5,5,0,0,1-2,1.42,8.53,8.53,0,0,1-3.1.5,9.61,9.61,0,0,1-2.21-.26,6.42,6.42,0,0,1-1.93-.82,4.89,4.89,0,0,1-1.42-1.41,4.19,4.19,0,0,1-.66-2.05h1.84a3.15,3.15,0,0,0,.56,1.41,3.32,3.32,0,0,0,1,.92,4.77,4.77,0,0,0,1.32.51,7.37,7.37,0,0,0,1.48.16,4.41,4.41,0,0,0,3.7-1.46A6.71,6.71,0,0,0,178.72,20v-2h-.06a5.39,5.39,0,0,1-1.87,2.24,5.05,5.05,0,0,1-2.9.85,7.23,7.23,0,0,1-3.08-.6,5.8,5.8,0,0,1-2.1-1.64,6.59,6.59,0,0,1-1.21-2.46,11.65,11.65,0,0,1-.38-3,9.39,9.39,0,0,1,.45-2.92A7.29,7.29,0,0,1,168.88,8,6.12,6.12,0,0,1,171,6.35a6.7,6.7,0,0,1,2.89-.6,5.14,5.14,0,0,1,1.59.24,5,5,0,0,1,1.35.65,5.66,5.66,0,0,1,1.09,1,4.14,4.14,0,0,1,.74,1.16h.06V6.19h1.83V20A11.51,11.51,0,0,1,180.19,23ZM176,19a4.85,4.85,0,0,0,1.51-1.34,5.73,5.73,0,0,0,.91-1.91,7.75,7.75,0,0,0,.31-2.2,9.74,9.74,0,0,0-.26-2.21,6.45,6.45,0,0,0-.85-2,4.49,4.49,0,0,0-1.49-1.45,4.22,4.22,0,0,0-2.23-.55,4.36,4.36,0,0,0-2.23.53,4.73,4.73,0,0,0-1.54,1.41,5.8,5.8,0,0,0-.89,2,9.27,9.27,0,0,0-.28,2.29,8.51,8.51,0,0,0,.29,2.2,5.91,5.91,0,0,0,.9,1.91A4.74,4.74,0,0,0,171.68,19a4.65,4.65,0,0,0,2.21.5A4.29,4.29,0,0,0,176,19Z"/><path class="cls-1" d="M184.41,8.52A4.28,4.28,0,0,1,185.68,7a5.24,5.24,0,0,1,1.87-.9,8.88,8.88,0,0,1,2.39-.3,11.06,11.06,0,0,1,2,.19,4.93,4.93,0,0,1,1.77.72A3.9,3.9,0,0,1,195,8.12a5.3,5.3,0,0,1,.49,2.46v8a1,1,0,0,0,1.07,1.11,1.41,1.41,0,0,0,.59-.12v1.54l-.57.09a5.29,5.29,0,0,1-.63,0,2.67,2.67,0,0,1-1.11-.19,1.55,1.55,0,0,1-.66-.54,2.1,2.1,0,0,1-.3-.83,6.83,6.83,0,0,1-.08-1.06h-.05a12,12,0,0,1-1,1.3,5,5,0,0,1-1.13.94,5.16,5.16,0,0,1-1.42.58,8.26,8.26,0,0,1-3.87,0,4.53,4.53,0,0,1-1.6-.79,3.61,3.61,0,0,1-1.07-1.36,4.42,4.42,0,0,1-.4-2,3.91,3.91,0,0,1,.7-2.46,4.41,4.41,0,0,1,1.85-1.35,10.7,10.7,0,0,1,2.58-.66l2.92-.36c.39,0,.73-.09,1-.14A1.74,1.74,0,0,0,193,12a1.4,1.4,0,0,0,.45-.6,2.48,2.48,0,0,0,.16-1,3.42,3.42,0,0,0-.3-1.53,2.42,2.42,0,0,0-.85-.94,3.2,3.2,0,0,0-1.25-.48,8.12,8.12,0,0,0-1.52-.13,4.61,4.61,0,0,0-2.85.82,3.26,3.26,0,0,0-1.17,2.66h-1.83A6.1,6.1,0,0,1,184.41,8.52ZM193.57,13a1,1,0,0,1-.67.47,8.58,8.58,0,0,1-.87.2q-1.16.21-2.4.36a13.9,13.9,0,0,0-2.25.48,4.4,4.4,0,0,0-1.67.92,2.17,2.17,0,0,0-.65,1.7,2.73,2.73,0,0,0,.27,1.24,3,3,0,0,0,.74.92,3,3,0,0,0,1.08.6,3.76,3.76,0,0,0,1.25.2,6.34,6.34,0,0,0,2-.31,5,5,0,0,0,1.67-.94,4.39,4.39,0,0,0,1.14-1.48,4.48,4.48,0,0,0,.42-2V13Z"/><path class="cls-1" d="M200.81,6.19V9.71h.06A5.72,5.72,0,0,1,203,6.89a5.66,5.66,0,0,1,3.5-.9V7.82a5.51,5.51,0,0,0-2.26.33A5,5,0,0,0,201.36,11a5.82,5.82,0,0,0-.41,2.2v8h-1.83v-15Z"/><path class="cls-2" d="M81.46,39.08a2.44,2.44,0,0,0,.76.89,3.17,3.17,0,0,0,1.1.5,5.23,5.23,0,0,0,1.31.17,7.06,7.06,0,0,0,1-.08,3.48,3.48,0,0,0,1-.29,2.11,2.11,0,0,0,.77-.61,1.52,1.52,0,0,0,.31-1,1.38,1.38,0,0,0-.41-1A3.13,3.13,0,0,0,86.21,37a9.74,9.74,0,0,0-1.49-.46c-.55-.14-1.11-.28-1.68-.44a17,17,0,0,1-1.71-.54,5.81,5.81,0,0,1-1.49-.82,3.84,3.84,0,0,1-1.06-1.26,3.79,3.79,0,0,1-.4-1.82,4.12,4.12,0,0,1,.51-2.09,4.78,4.78,0,0,1,1.35-1.48,5.89,5.89,0,0,1,1.88-.87,8,8,0,0,1,2.1-.29,9.51,9.51,0,0,1,2.35.28,5.75,5.75,0,0,1,2,.88A4.38,4.38,0,0,1,90,29.67a4.8,4.8,0,0,1,.52,2.3H87.15a2.85,2.85,0,0,0-.29-1.15,2.05,2.05,0,0,0-.67-.73,2.94,2.94,0,0,0-1-.37,6.12,6.12,0,0,0-1.17-.11,3.84,3.84,0,0,0-.83.09,2.22,2.22,0,0,0-.76.31,1.8,1.8,0,0,0-.56.54,1.53,1.53,0,0,0-.22.83,1.39,1.39,0,0,0,.18.75,1.59,1.59,0,0,0,.69.52,8.87,8.87,0,0,0,1.42.48l2.37.62c.3.06.7.16,1.22.31a5.87,5.87,0,0,1,1.54.74,4.56,4.56,0,0,1,1.32,1.34A3.77,3.77,0,0,1,91,38.3a4.92,4.92,0,0,1-.41,2,4.3,4.3,0,0,1-1.24,1.58,6,6,0,0,1-2,1,9.59,9.59,0,0,1-2.82.37A9.9,9.9,0,0,1,82,43a6.3,6.3,0,0,1-2.14-1,4.87,4.87,0,0,1-1.48-1.73,5.14,5.14,0,0,1-.53-2.49h3.33A2.84,2.84,0,0,0,81.46,39.08Z"/><path class="cls-2" d="M91.79,44.33a1.86,1.86,0,0,0,.84-.18.84.84,0,0,0,.36-.82V31.62H96.1V43.48A5.55,5.55,0,0,1,95.91,45a2.28,2.28,0,0,1-.63,1.06,2.67,2.67,0,0,1-1.22.63,7.5,7.5,0,0,1-1.94.21,5.83,5.83,0,0,1-1-.08V44.25A2.27,2.27,0,0,0,91.79,44.33ZM93,29.87V27.32H96.1v2.55Z"/><path class="cls-2" d="M98.85,34.83A5.32,5.32,0,0,1,100,33a5.41,5.41,0,0,1,1.84-1.21,7.12,7.12,0,0,1,4.82,0A5.26,5.26,0,0,1,108.54,33a5.19,5.19,0,0,1,1.18,1.88,6.9,6.9,0,0,1,.42,2.46,6.81,6.81,0,0,1-.42,2.45,5.23,5.23,0,0,1-1.18,1.87,5,5,0,0,1-1.85,1.19,7.12,7.12,0,0,1-4.82,0A5.08,5.08,0,0,1,100,41.61a5.37,5.37,0,0,1-1.18-1.87,6.81,6.81,0,0,1-.41-2.45A6.9,6.9,0,0,1,98.85,34.83Zm4.66-7.51v2.55h-3V27.32Zm-1.84,11.29a3.6,3.6,0,0,0,.45,1.16,2.36,2.36,0,0,0,.84.82,3,3,0,0,0,2.64,0,2.23,2.23,0,0,0,.85-.82,3.38,3.38,0,0,0,.45-1.16,6.42,6.42,0,0,0,.13-1.32A6.52,6.52,0,0,0,106.9,36a3.23,3.23,0,0,0-.45-1.16,2.39,2.39,0,0,0-.85-.82A2.88,2.88,0,0,0,103,34a2.53,2.53,0,0,0-.84.82,3.43,3.43,0,0,0-.45,1.16,7.31,7.31,0,0,0-.13,1.33A7.2,7.2,0,0,0,101.67,38.61ZM108,27.32v2.55h-3V27.32Z"/><path class="cls-2" d="M122.84,43.76a3.83,3.83,0,0,1-.8,1.63,4.71,4.71,0,0,1-1.77,1.28,7.67,7.67,0,0,1-3.11.53,7.11,7.11,0,0,1-1.69-.21,5.4,5.4,0,0,1-1.58-.64,4,4,0,0,1-1.18-1.13,3.37,3.37,0,0,1-.54-1.65h3.09a1.75,1.75,0,0,0,.85,1.21,3,3,0,0,0,1.47.34,2.24,2.24,0,0,0,1.91-.79,3.06,3.06,0,0,0,.58-2V40.86h0a3.18,3.18,0,0,1-1.44,1.32,4.7,4.7,0,0,1-2,.43,4.92,4.92,0,0,1-2.19-.45,4.14,4.14,0,0,1-1.51-1.23,5.16,5.16,0,0,1-.87-1.81,8.78,8.78,0,0,1-.27-2.2,7.1,7.1,0,0,1,.32-2.11,5.49,5.49,0,0,1,.93-1.8,4.74,4.74,0,0,1,5.56-1.28,3.41,3.41,0,0,1,1.42,1.4h0V31.62h3V42.21A7.77,7.77,0,0,1,122.84,43.76ZM118.58,40a2.27,2.27,0,0,0,.83-.7,3.08,3.08,0,0,0,.5-1,4.13,4.13,0,0,0,.16-1.17,6.32,6.32,0,0,0-.13-1.33,3.26,3.26,0,0,0-.44-1.1,2.22,2.22,0,0,0-.81-.77,2.54,2.54,0,0,0-1.27-.28,2.32,2.32,0,0,0-1.12.26,2.34,2.34,0,0,0-.79.71,3.12,3.12,0,0,0-.46,1,5.34,5.34,0,0,0-.14,1.21,6.23,6.23,0,0,0,.12,1.22,3.41,3.41,0,0,0,.41,1.08,2.56,2.56,0,0,0,.78.79,2.23,2.23,0,0,0,1.2.31A2.39,2.39,0,0,0,118.58,40Z"/><path class="cls-2" d="M128.47,31.62v2.11h0a3.8,3.8,0,0,1,.6-1A3.62,3.62,0,0,1,130,32a3.93,3.93,0,0,1,1-.5,3.86,3.86,0,0,1,1.13-.17,2.19,2.19,0,0,1,.68.11v2.89a5.26,5.26,0,0,0-.52-.08l-.59,0a3.35,3.35,0,0,0-1.45.28,2.51,2.51,0,0,0-1,.78,3.11,3.11,0,0,0-.51,1.14,5.91,5.91,0,0,0-.16,1.43v5.09h-3.1V31.62Z"/><path class="cls-2" d="M137,40.22a3.18,3.18,0,0,0,3.63.21,1.94,1.94,0,0,0,.83-1h2.73a5.15,5.15,0,0,1-2,2.91,5.87,5.87,0,0,1-3.28.88,6.3,6.3,0,0,1-2.4-.43,4.93,4.93,0,0,1-1.82-1.21,5.44,5.44,0,0,1-1.15-1.88,6.93,6.93,0,0,1-.4-2.41,6.5,6.5,0,0,1,.41-2.36A5.55,5.55,0,0,1,134.68,33a5.35,5.35,0,0,1,1.83-1.26,5.8,5.8,0,0,1,2.35-.46,5.32,5.32,0,0,1,2.52.56,5.1,5.1,0,0,1,1.76,1.49,6.13,6.13,0,0,1,1,2.15,7.74,7.74,0,0,1,.22,2.51h-8.16A3.15,3.15,0,0,0,137,40.22Zm3.51-5.95a2.18,2.18,0,0,0-1.7-.61,2.64,2.64,0,0,0-1.23.25,2.5,2.5,0,0,0-.79.62,2.24,2.24,0,0,0-.42.79,4.1,4.1,0,0,0-.14.74h5.06A3.67,3.67,0,0,0,140.47,34.27Z"/><path class="cls-2" d="M149.14,31.62V33.2h.07a3.5,3.5,0,0,1,1.53-1.43,4.42,4.42,0,0,1,1.92-.45,5.22,5.22,0,0,1,2.05.34,2.94,2.94,0,0,1,1.25.94,3.55,3.55,0,0,1,.65,1.46A9.46,9.46,0,0,1,156.8,36v7h-3.11V36.55a4,4,0,0,0-.44-2.09,1.69,1.69,0,0,0-1.55-.69,2.16,2.16,0,0,0-1.84.75,4.21,4.21,0,0,0-.57,2.49v5.92h-3.1V31.62Z"/><path class="cls-3" d="M47.08,1.63a20.79,20.79,0,0,0-6.73,1.13L60.12,22.53,40.35,42.3A20.89,20.89,0,1,0,47.08,1.63Z"/><path class="cls-3" d="M27.63,2.76a20.9,20.9,0,1,0,0,39.54L7.86,22.53Z"/><circle class="cls-3" cx="33.99" cy="22.41" r="12.26"/></g></g></svg>