<svg xmlns="http://www.w3.org/2000/svg" viewBox="0 0 480.46 178.83"><defs><style>.cls-1{fill:#36495e;}.cls-2{fill:#fff;}.cls-3{fill:#ed8571;}</style></defs><g id="Layer_2" data-name="Layer 2"><g id="Layer_1-2" data-name="Layer 1"><rect class="cls-1" x="279.65" y="25.41" width="55.11" height="104.68" rx="1.35"/><rect class="cls-1" x="337.86" width="72.96" height="120.24" rx="1.35"/><rect class="cls-1" x="414.28" y="15.72" width="66.18" height="115.98" rx="1.35"/><rect class="cls-1" x="207.59" y="10.43" width="76.65" height="104.68" rx="1.35"/><path class="cls-2" d="M232.23,172.83V57.41H442a32.54,32.54,0,0,1,32.5,32.5v50.42a32.54,32.54,0,0,1-32.5,32.5Z"/><path class="cls-1" d="M442,63.41a26.53,26.53,0,0,1,26.5,26.5v50.42a26.53,26.53,0,0,1-26.5,26.5H238.23V63.41H442m0-12H226.23V178.83H442a38.5,38.5,0,0,0,38.5-38.5V89.91A38.5,38.5,0,0,0,442,51.41Z"/><path class="cls-3" d="M226.23,51.41H36.66C16.41,51.41,0,68.65,0,89.91v50.42c0,21.26,16.41,38.5,36.66,38.5H226.23Z"/><path class="cls-2" d="M20.64,142V88.28H40.39a37.44,37.44,0,0,1,9.47,1,18.09,18.09,0,0,1,6.37,2.91,11.09,11.09,0,0,1,3.6,4.57,15.62,15.62,0,0,1,1.12,6,11.6,11.6,0,0,1-.52,3.48,10,10,0,0,1-1.62,3.15A12.1,12.1,0,0,1,56,112.1a18.43,18.43,0,0,1-4.17,2.08q5.31,1.29,7.85,4.18a10.88,10.88,0,0,1,2.54,7.43,15.39,15.39,0,0,1-1.32,6.37A14.58,14.58,0,0,1,57,137.3a18.57,18.57,0,0,1-6.32,3.43A27.59,27.59,0,0,1,42.09,142ZM33.1,110.87h6.48a20.91,20.91,0,0,0,3.72-.3,7.77,7.77,0,0,0,2.82-1,4.8,4.8,0,0,0,1.77-2,7.68,7.68,0,0,0,.61-3.24,9.12,9.12,0,0,0-.48-3.19,4.53,4.53,0,0,0-1.48-2A6.08,6.08,0,0,0,44,97.93a17.42,17.42,0,0,0-3.63-.33H33.1Zm0,8.32v13.38h8.77a11,11,0,0,0,4-.63,6.47,6.47,0,0,0,2.45-1.62,5.57,5.57,0,0,0,1.22-2.25,9.89,9.89,0,0,0,.33-2.54,8.39,8.39,0,0,0-.39-2.65,4.36,4.36,0,0,0-1.33-2,6.5,6.5,0,0,0-2.48-1.26,14.79,14.79,0,0,0-3.91-.44Z"/><path class="cls-2" d="M95.73,121.55V142H83.28V121.55L63.82,88.28h11a4,4,0,0,1,2.58.76A5.49,5.49,0,0,1,78.93,91l7.59,15.62,1.69,3.46c.52,1.06,1,2.1,1.37,3.14A27.64,27.64,0,0,1,90.9,110c.52-1.06,1.07-2.2,1.66-3.43L100.08,91a4.59,4.59,0,0,1,.6-1,5.18,5.18,0,0,1,.89-.86,4.18,4.18,0,0,1,1.14-.63,4,4,0,0,1,1.42-.24h11.05Z"/><path class="cls-2" d="M141.19,133a21.54,21.54,0,0,0,4.57-.44,22.92,22.92,0,0,0,3.76-1.18v-8.14h-5.31a2.57,2.57,0,0,1-1.84-.63,2.08,2.08,0,0,1-.66-1.58v-6.86h19.08V136.8a27.1,27.1,0,0,1-4.29,2.6,28.59,28.59,0,0,1-4.75,1.79,36.13,36.13,0,0,1-5.38,1,53.56,53.56,0,0,1-6.14.33,28.07,28.07,0,0,1-10.9-2.08,26.69,26.69,0,0,1-8.68-5.75,26.34,26.34,0,0,1-5.74-8.69,28.3,28.3,0,0,1-2.09-10.93,29.85,29.85,0,0,1,2-11,24.83,24.83,0,0,1,5.7-8.68,25.74,25.74,0,0,1,9-5.67,32.37,32.37,0,0,1,11.73-2,34,34,0,0,1,6.3.55,31.9,31.9,0,0,1,5.44,1.51A25.15,25.15,0,0,1,157.48,92a24.52,24.52,0,0,1,3.68,2.87l-3.61,5.49a4,4,0,0,1-1.23,1.22,3,3,0,0,1-1.57.44,4.29,4.29,0,0,1-2.28-.74c-1-.59-1.91-1.1-2.79-1.53A16.81,16.81,0,0,0,147,98.74a18.22,18.22,0,0,0-2.87-.59,28.93,28.93,0,0,0-3.39-.18,15.53,15.53,0,0,0-6.3,1.23,13.53,13.53,0,0,0-4.77,3.49,15.5,15.5,0,0,0-3,5.39,21.82,21.82,0,0,0-1.07,7,22.49,22.49,0,0,0,1.18,7.59,16.31,16.31,0,0,0,3.26,5.6,13.75,13.75,0,0,0,4.94,3.48A15.92,15.92,0,0,0,141.19,133Z"/><path class="cls-2" d="M193.66,133a21.37,21.37,0,0,0,4.56-.44,22.92,22.92,0,0,0,3.76-1.18v-8.14h-5.3a2.59,2.59,0,0,1-1.85-.63,2.08,2.08,0,0,1-.66-1.58v-6.86h19.09V136.8a27.64,27.64,0,0,1-4.3,2.6,28.26,28.26,0,0,1-4.75,1.79,35.88,35.88,0,0,1-5.38,1,53.5,53.5,0,0,1-6.13.33,28.12,28.12,0,0,1-10.91-2.08A26.16,26.16,0,0,1,167.37,126a28.3,28.3,0,0,1-2.08-10.93,29.65,29.65,0,0,1,2-11A24.67,24.67,0,0,1,173,95.39a25.83,25.83,0,0,1,8.95-5.67,32.38,32.38,0,0,1,11.74-2,34.12,34.12,0,0,1,6.3.55,32,32,0,0,1,5.43,1.51A24.82,24.82,0,0,1,209.94,92a24,24,0,0,1,3.68,2.87L210,100.4a4,4,0,0,1-1.23,1.22,3,3,0,0,1-1.57.44,4.35,4.35,0,0,1-2.28-.74c-1-.59-1.91-1.1-2.78-1.53a16.81,16.81,0,0,0-2.67-1.05,18.35,18.35,0,0,0-2.88-.59,28.69,28.69,0,0,0-3.39-.18,15.53,15.53,0,0,0-6.3,1.23,13.71,13.71,0,0,0-4.77,3.49,15.83,15.83,0,0,0-3,5.39,21.82,21.82,0,0,0-1.07,7,22.74,22.74,0,0,0,1.18,7.59,16.47,16.47,0,0,0,3.26,5.6,13.83,13.83,0,0,0,4.94,3.48A16,16,0,0,0,193.66,133Z"/><path class="cls-1" d="M255.09,88.35a3.69,3.69,0,0,1,1,.28,3.52,3.52,0,0,1,.85.57,9.6,9.6,0,0,1,.92,1l25.5,32.23c-.1-1-.18-2-.23-3s-.07-1.88-.07-2.74V88.28h11V142h-6.48a6.12,6.12,0,0,1-2.44-.44,5.29,5.29,0,0,1-1.91-1.62l-25.31-32c.07.93.13,1.85.18,2.74s.07,1.74.07,2.53V142h-11V88.28h6.55A10.62,10.62,0,0,1,255.09,88.35Z"/><path class="cls-1" d="M355.85,115.1a28.82,28.82,0,0,1-2,10.83,26.19,26.19,0,0,1-5.65,8.72,25.87,25.87,0,0,1-8.79,5.8,32,32,0,0,1-22.82,0,25.56,25.56,0,0,1-14.5-14.52,30.18,30.18,0,0,1,0-21.66,25.9,25.9,0,0,1,5.67-8.7,26.39,26.39,0,0,1,8.83-5.78,31.91,31.91,0,0,1,22.82,0,26.31,26.31,0,0,1,8.79,5.8,26,26,0,0,1,5.65,8.7A28.72,28.72,0,0,1,355.85,115.1Zm-12.75,0a23.1,23.1,0,0,0-1-7.16,15.13,15.13,0,0,0-3-5.4,12.76,12.76,0,0,0-4.74-3.39A16.22,16.22,0,0,0,328,98a16.46,16.46,0,0,0-6.43,1.18,12.72,12.72,0,0,0-4.75,3.39,15.14,15.14,0,0,0-3,5.4,25.54,25.54,0,0,0,0,14.36,15.14,15.14,0,0,0,3,5.4,12.46,12.46,0,0,0,4.75,3.37,16.64,16.64,0,0,0,6.43,1.16,16.41,16.41,0,0,0,6.37-1.16,12.5,12.5,0,0,0,4.74-3.37,15.13,15.13,0,0,0,3-5.4A23.22,23.22,0,0,0,343.1,115.1Z"/><path class="cls-1" d="M374.27,122.1V142H361.82V88.28h17.46a35.78,35.78,0,0,1,9.93,1.2,18.74,18.74,0,0,1,6.71,3.33,12.61,12.61,0,0,1,3.77,5,16.64,16.64,0,0,1,1.18,6.34,16.84,16.84,0,0,1-.7,4.93,14.89,14.89,0,0,1-2.08,4.3,16.07,16.07,0,0,1-3.39,3.51,18,18,0,0,1-4.62,2.55,11.82,11.82,0,0,1,2.34,1.54,9.49,9.49,0,0,1,1.89,2.25L405.74,142H394.46A4.78,4.78,0,0,1,390,139.6L381.05,124a3.76,3.76,0,0,0-1.38-1.48,4.69,4.69,0,0,0-2.23-.44Zm0-8.58h5a12.78,12.78,0,0,0,4.33-.65,7.83,7.83,0,0,0,2.93-1.78,7,7,0,0,0,1.66-2.68,10.27,10.27,0,0,0,.51-3.29,6.91,6.91,0,0,0-2.3-5.53q-2.3-2-7.13-2h-5Z"/><path class="cls-1" d="M459.53,115.1a28.13,28.13,0,0,1-2,10.74,25.12,25.12,0,0,1-5.66,8.51,25.61,25.61,0,0,1-8.78,5.6,31.1,31.1,0,0,1-11.41,2H410.82V88.28h20.85a30.9,30.9,0,0,1,11.41,2,25.91,25.91,0,0,1,8.78,5.6,24.94,24.94,0,0,1,5.66,8.49A28,28,0,0,1,459.53,115.1Zm-12.75,0a23.58,23.58,0,0,0-1-7.18,15.42,15.42,0,0,0-3-5.44,13,13,0,0,0-4.73-3.42,16.06,16.06,0,0,0-6.38-1.2h-8.32v34.52h8.32a16.06,16.06,0,0,0,6.38-1.2,12.88,12.88,0,0,0,4.73-3.42,15.42,15.42,0,0,0,3-5.44A23.7,23.7,0,0,0,446.78,115.1Z"/></g></g></svg>