<svg xmlns="http://www.w3.org/2000/svg" viewBox="0 0 474.3 174.26"><defs><style>.cls-1{fill:#36495e;}.cls-2{fill:#ed8571;}.cls-3{fill:#fff;}</style></defs><g id="Layer_2" data-name="Layer 2"><g id="Layer_1-2" data-name="Layer 1"><path class="cls-1" d="M221.57,35.46V138.9H38.5A26.53,26.53,0,0,1,12,112.4V62a26.53,26.53,0,0,1,26.5-26.5l183.07,0m12-12-195.07,0A38.5,38.5,0,0,0,0,62V112.4a38.5,38.5,0,0,0,38.5,38.5H233.57V23.46Z"/><path class="cls-2" d="M233.57,150.9l204.07-.06c20.25,0,36.66-17.23,36.66-38.49V61.92c0-21.26-16.41-38.5-36.66-38.5l-204.07,0Z"/><path class="cls-1" d="M20.64,114V60.35H40.39a37.44,37.44,0,0,1,9.47,1,18.09,18.09,0,0,1,6.37,2.91,11,11,0,0,1,3.6,4.57,15.62,15.62,0,0,1,1.12,6,11.6,11.6,0,0,1-.52,3.48,10,10,0,0,1-1.62,3.15A12.1,12.1,0,0,1,56,84.17a18.43,18.43,0,0,1-4.17,2.08q5.31,1.29,7.85,4.18a10.86,10.86,0,0,1,2.54,7.43,15.39,15.39,0,0,1-1.32,6.37A14.67,14.67,0,0,1,57,109.37a18.57,18.57,0,0,1-6.32,3.43A27.59,27.59,0,0,1,42.09,114ZM33.1,82.93h6.48a21,21,0,0,0,3.72-.29,7.77,7.77,0,0,0,2.82-1,4.8,4.8,0,0,0,1.77-2,7.68,7.68,0,0,0,.61-3.24A9.12,9.12,0,0,0,48,73.15a4.53,4.53,0,0,0-1.48-2A6.08,6.08,0,0,0,44,70a17.42,17.42,0,0,0-3.63-.33H33.1Zm0,8.33v13.37h8.77a11,11,0,0,0,4-.62,6.47,6.47,0,0,0,2.45-1.62,5.57,5.57,0,0,0,1.22-2.25,9.89,9.89,0,0,0,.33-2.54A8.39,8.39,0,0,0,49.51,95a4.36,4.36,0,0,0-1.33-2A6.5,6.5,0,0,0,45.7,91.7a14.79,14.79,0,0,0-3.91-.44Z"/><path class="cls-1" d="M95.73,93.62V114H83.28V93.62L63.82,60.35h11a4,4,0,0,1,2.58.76A5.49,5.49,0,0,1,78.93,63l7.59,15.62,1.69,3.46c.52,1.06,1,2.1,1.37,3.14a27.64,27.64,0,0,1,1.32-3.17c.52-1.06,1.07-2.2,1.66-3.43L100.08,63a4.59,4.59,0,0,1,.6-1,5.18,5.18,0,0,1,.89-.86,4.18,4.18,0,0,1,1.14-.63,4,4,0,0,1,1.42-.24h11.05Z"/><path class="cls-1" d="M141.19,105a21.54,21.54,0,0,0,4.57-.44,22.92,22.92,0,0,0,3.76-1.18V95.28h-5.31a2.57,2.57,0,0,1-1.84-.63,2.08,2.08,0,0,1-.66-1.58V86.21h19.08v22.66a27.1,27.1,0,0,1-4.29,2.6,28.59,28.59,0,0,1-4.75,1.79,36.13,36.13,0,0,1-5.38,1,53.56,53.56,0,0,1-6.14.33,28.07,28.07,0,0,1-10.9-2.08,26.69,26.69,0,0,1-8.68-5.75,26.34,26.34,0,0,1-5.74-8.69,28.3,28.3,0,0,1-2.09-10.93,29.85,29.85,0,0,1,2-11,24.83,24.83,0,0,1,5.7-8.68,25.74,25.74,0,0,1,9-5.67,32.37,32.37,0,0,1,11.73-2,34,34,0,0,1,6.3.55,31.9,31.9,0,0,1,5.44,1.51,25.15,25.15,0,0,1,4.55,2.29A24.52,24.52,0,0,1,161.16,67l-3.61,5.49a4,4,0,0,1-1.23,1.22,3,3,0,0,1-1.57.44,4.29,4.29,0,0,1-2.28-.74c-1-.59-1.91-1.1-2.79-1.53a16.81,16.81,0,0,0-2.67-1,18.22,18.22,0,0,0-2.87-.59,28.93,28.93,0,0,0-3.39-.18,15.53,15.53,0,0,0-6.3,1.23,13.53,13.53,0,0,0-4.77,3.49,15.5,15.5,0,0,0-3,5.39,21.82,21.82,0,0,0-1.07,7,22.49,22.49,0,0,0,1.18,7.59,16.31,16.31,0,0,0,3.26,5.6,13.75,13.75,0,0,0,4.94,3.48A15.92,15.92,0,0,0,141.19,105Z"/><path class="cls-1" d="M193.66,105a21.37,21.37,0,0,0,4.56-.44,22.92,22.92,0,0,0,3.76-1.18V95.28h-5.3a2.59,2.59,0,0,1-1.85-.63,2.08,2.08,0,0,1-.66-1.58V86.21h19.09v22.66a27.64,27.64,0,0,1-4.3,2.6,28.26,28.26,0,0,1-4.75,1.79,35.88,35.88,0,0,1-5.38,1,53.5,53.5,0,0,1-6.13.33,28.12,28.12,0,0,1-10.91-2.08A26.16,26.16,0,0,1,167.37,98.1a28.3,28.3,0,0,1-2.08-10.93,29.65,29.65,0,0,1,2-11A24.67,24.67,0,0,1,173,67.46a25.83,25.83,0,0,1,8.95-5.67,32.38,32.38,0,0,1,11.74-2,34.12,34.12,0,0,1,6.3.55,32,32,0,0,1,5.43,1.51,24.82,24.82,0,0,1,4.55,2.29A24,24,0,0,1,213.62,67L210,72.47a4,4,0,0,1-1.23,1.22,3,3,0,0,1-1.57.44,4.35,4.35,0,0,1-2.28-.74c-1-.59-1.91-1.1-2.78-1.53a16.81,16.81,0,0,0-2.67-1,18.35,18.35,0,0,0-2.88-.59,28.69,28.69,0,0,0-3.39-.18,15.53,15.53,0,0,0-6.3,1.23,13.71,13.71,0,0,0-4.77,3.49,15.83,15.83,0,0,0-3,5.39,21.82,21.82,0,0,0-1.07,7,22.74,22.74,0,0,0,1.18,7.59,16.47,16.47,0,0,0,3.26,5.6,13.83,13.83,0,0,0,4.94,3.48A16,16,0,0,0,193.66,105Z"/><path class="cls-3" d="M249.77,58.74a3.84,3.84,0,0,1,1.06.29,3.58,3.58,0,0,1,.9.61,10.66,10.66,0,0,1,1,1l27.07,34.23c-.1-1.1-.18-2.16-.24-3.19s-.07-2-.07-2.92V58.66h11.65v57h-6.88a6.2,6.2,0,0,1-2.58-.47,5.39,5.39,0,0,1-2-1.72L252.74,79.51c.08,1,.15,2,.2,2.91s.08,1.84.08,2.68v30.54H241.36v-57h7A11.54,11.54,0,0,1,249.77,58.74Z"/><path class="cls-3" d="M356.74,87.13a30.63,30.63,0,0,1-2.13,11.5A27.23,27.23,0,0,1,339.28,114a34,34,0,0,1-24.23,0,27.18,27.18,0,0,1-15.39-15.41,32.11,32.11,0,0,1,0-23,27.48,27.48,0,0,1,6-9.23,28,28,0,0,1,9.37-6.14A32,32,0,0,1,327.17,58a31.47,31.47,0,0,1,12.11,2.25,28,28,0,0,1,9.32,6.16,27.45,27.45,0,0,1,6,9.23A30.57,30.57,0,0,1,356.74,87.13Zm-13.53,0a24.7,24.7,0,0,0-1.1-7.61A16.06,16.06,0,0,0,339,73.8a13.39,13.39,0,0,0-5-3.6A17.21,17.21,0,0,0,327.17,69a17.43,17.43,0,0,0-6.82,1.25,13.42,13.42,0,0,0-5.05,3.6,16.06,16.06,0,0,0-3.15,5.72,27.25,27.25,0,0,0,0,15.26,16.19,16.19,0,0,0,3.15,5.73,13.37,13.37,0,0,0,5.05,3.58,17.8,17.8,0,0,0,6.82,1.23,17.57,17.57,0,0,0,6.77-1.23,13.35,13.35,0,0,0,5-3.58,16.19,16.19,0,0,0,3.15-5.73A24.83,24.83,0,0,0,343.21,87.13Z"/><path class="cls-3" d="M376.3,94.56v21.08H363.08v-57h18.53a38,38,0,0,1,10.55,1.27,19.82,19.82,0,0,1,7.11,3.54,13.33,13.33,0,0,1,4,5.36,17.64,17.64,0,0,1,1.25,6.73,17.94,17.94,0,0,1-.74,5.24,15.61,15.61,0,0,1-2.21,4.55,17.2,17.2,0,0,1-3.6,3.74,19.29,19.29,0,0,1-4.91,2.7,12.32,12.32,0,0,1,2.49,1.64,9.76,9.76,0,0,1,2,2.38l12.13,19.83h-12a5.06,5.06,0,0,1-4.77-2.5L383.49,96.6A4.07,4.07,0,0,0,382,95a5,5,0,0,0-2.37-.47Zm0-9.11h5.31a13.77,13.77,0,0,0,4.6-.68,8.39,8.39,0,0,0,3.11-1.9A7.23,7.23,0,0,0,391.08,80a11,11,0,0,0,.55-3.5,7.32,7.32,0,0,0-2.45-5.86q-2.44-2.11-7.57-2.12H376.3Z"/><path class="cls-3" d="M466.8,87.13a29.89,29.89,0,0,1-2.13,11.4,26.56,26.56,0,0,1-6,9,27.26,27.26,0,0,1-9.32,5.94,33.08,33.08,0,0,1-12.11,2.13H415.09v-57h22.14a32.87,32.87,0,0,1,12.11,2.15,27.58,27.58,0,0,1,9.32,6,26.24,26.24,0,0,1,6,9A29.8,29.8,0,0,1,466.8,87.13Zm-13.53,0a24.77,24.77,0,0,0-1.1-7.62A16.21,16.21,0,0,0,449,73.74a13.68,13.68,0,0,0-5-3.64,17,17,0,0,0-6.77-1.27h-8.84v36.65h8.84A17,17,0,0,0,444,104.2a13.66,13.66,0,0,0,5-3.63,16.29,16.29,0,0,0,3.15-5.77A25,25,0,0,0,453.27,87.13Z"/><rect class="cls-1" x="221.49" width="12.01" height="174.26"/></g></g></svg>