<svg xmlns="http://www.w3.org/2000/svg" viewBox="0 0 263.65 55.29"><defs><style>.cls-1{fill:#64697a;}.cls-2{fill:#2d3349;}</style></defs><g id="Ebene_2" data-name="Ebene 2"><g id="Ebene_1-2" data-name="Ebene 1"><path class="cls-1" d="M20.61,19H5.39L2.06,26.41H0L12.06.19H14L26,26.41H24Zm-.72-1.61L13,2.29,6.14,17.42Z"/><path class="cls-1" d="M52.15.19V26.41H50.58L32.71,3.63V26.41H30.8V.19h1.61L50.24,23V.19Z"/><path class="cls-1" d="M59,.19h1.91v24.5H76v1.72H59Z"/><path class="cls-1" d="M99.28,19H84.07l-3.34,7.38H78.67L90.74.19h1.91l12.06,26.22h-2.06Zm-.72-1.61L91.67,2.29,84.82,17.42ZM85.19,2.49a1.3,1.3,0,0,1-.39-1,1.3,1.3,0,0,1,.39-1,1.33,1.33,0,0,1,1-.37,1.3,1.3,0,0,1,.95.39,1.3,1.3,0,0,1,.39,1,1.24,1.24,0,0,1-.41,1,1.34,1.34,0,0,1-1.89,0Zm11.15,0a1.25,1.25,0,0,1-.42-1,1.31,1.31,0,0,1,.4-1,1.3,1.3,0,0,1,1-.39,1.33,1.33,0,0,1,1,.37,1.3,1.3,0,0,1,.39,1,1.34,1.34,0,0,1-2.28,1Z"/><path class="cls-1" d="M130.17,13.41H132v9.82a11.52,11.52,0,0,1-4.17,2.51,15.7,15.7,0,0,1-5.19.86,14.33,14.33,0,0,1-7-1.72,12.76,12.76,0,0,1-4.91-4.76,13.29,13.29,0,0,1-1.78-6.82,13.29,13.29,0,0,1,1.78-6.82,12.76,12.76,0,0,1,4.91-4.76A14.39,14.39,0,0,1,122.67,0,14.88,14.88,0,0,1,128,.92a11.26,11.26,0,0,1,4.14,2.68l-1.2,1.27a10,10,0,0,0-3.69-2.38,13.27,13.27,0,0,0-4.52-.73,12.41,12.41,0,0,0-6.09,1.5,11,11,0,0,0-4.25,4.14,11.56,11.56,0,0,0-1.53,5.9,11.31,11.31,0,0,0,5.8,10,12.18,12.18,0,0,0,6.07,1.52,11.47,11.47,0,0,0,7.46-2.4Z"/><path class="cls-1" d="M141.39,22.44a11.47,11.47,0,0,0,7.46,2.4,12.18,12.18,0,0,0,6.07-1.52,11.17,11.17,0,0,0,4.25-4.16,11.29,11.29,0,0,0,1.56-5.86,11.47,11.47,0,0,0-1.54-5.9,10.91,10.91,0,0,0-4.25-4.14,12.38,12.38,0,0,0-6.09-1.5,13.21,13.21,0,0,0-4.51.73,9.91,9.91,0,0,0-3.7,2.38L139.45,3.6A11.18,11.18,0,0,1,143.59.92a14.82,14.82,0,0,1,5.3-.92A14.39,14.39,0,0,1,156,1.72a12.69,12.69,0,0,1,4.91,4.76,13.29,13.29,0,0,1,1.78,6.82,13.29,13.29,0,0,1-1.78,6.82A12.69,12.69,0,0,1,156,24.88a14.31,14.31,0,0,1-7,1.72,15.61,15.61,0,0,1-5.19-.86,11.48,11.48,0,0,1-4.18-2.51V13.41h1.83Z"/><path class="cls-1" d="M190.71.19V26.41h-1.57L171.27,3.63V26.41h-1.91V.19H171L188.8,23V.19Z"/><path class="cls-1" d="M199.85.19h1.91V26.41h-1.91Z"/><path class="cls-1" d="M233,.19V26.41h-1.57L213.6,3.63V26.41h-1.91V.19h1.61L231.13,23V.19Z"/><path class="cls-1" d="M261.7,13.41h1.83v9.82a11.43,11.43,0,0,1-4.17,2.51,15.7,15.7,0,0,1-5.19.86,14.33,14.33,0,0,1-7-1.72,12.67,12.67,0,0,1-4.9-4.76,13.2,13.2,0,0,1-1.78-6.82,13.2,13.2,0,0,1,1.78-6.82,12.67,12.67,0,0,1,4.9-4.76A14.4,14.4,0,0,1,254.21,0a14.86,14.86,0,0,1,5.3.92,11.26,11.26,0,0,1,4.14,2.68l-1.2,1.27a10,10,0,0,0-3.69-2.38,13.27,13.27,0,0,0-4.52-.73,12.41,12.41,0,0,0-6.09,1.5A11,11,0,0,0,243.9,7.4a11.56,11.56,0,0,0-1.53,5.9,11.31,11.31,0,0,0,5.8,10,12.18,12.18,0,0,0,6.07,1.52,11.46,11.46,0,0,0,7.46-2.4Z"/><path class="cls-2" d="M89.41,42.32h2.24v6.39a8.71,8.71,0,0,1-2.83,1.55,10.57,10.57,0,0,1-3.37.54A9.19,9.19,0,0,1,81,49.71a8.12,8.12,0,0,1-4.27-7.3,8.25,8.25,0,0,1,1.14-4.3,8,8,0,0,1,3.14-3A9.31,9.31,0,0,1,85.5,34a9.5,9.5,0,0,1,3.57.65,7.12,7.12,0,0,1,2.72,1.88L90.34,38a6.6,6.6,0,0,0-4.75-1.89,6.9,6.9,0,0,0-3.36.8,5.93,5.93,0,0,0-2.33,2.25,6.63,6.63,0,0,0,0,6.46,6,6,0,0,0,2.33,2.26,6.75,6.75,0,0,0,3.34.82,7,7,0,0,0,3.84-1.05Z"/><path class="cls-2" d="M97.79,49.93a6,6,0,0,1-2.31-2.26,6.84,6.84,0,0,1,0-6.53,5.88,5.88,0,0,1,2.31-2.25,7.21,7.21,0,0,1,6.64,0,5.9,5.9,0,0,1,2.29,2.25,6.84,6.84,0,0,1,0,6.53,6,6,0,0,1-2.29,2.26,7.13,7.13,0,0,1-6.64,0Zm5.47-1.7a3.85,3.85,0,0,0,1.48-1.54,5.1,5.1,0,0,0,0-4.57,3.83,3.83,0,0,0-1.48-1.53,4.53,4.53,0,0,0-4.29,0,3.94,3.94,0,0,0-1.5,1.53,5,5,0,0,0,0,4.57A4,4,0,0,0,99,48.23a4.46,4.46,0,0,0,4.29,0ZM98.07,35.66a1.16,1.16,0,0,1-.35-.86,1.18,1.18,0,0,1,.35-.86,1.11,1.11,0,0,1,.84-.35,1.15,1.15,0,0,1,.85.35,1.18,1.18,0,0,1,.35.86,1.16,1.16,0,0,1-.35.86,1.18,1.18,0,0,1-.85.34A1.14,1.14,0,0,1,98.07,35.66Zm4.35,0a1.16,1.16,0,0,1-.35-.86,1.18,1.18,0,0,1,.35-.86,1.15,1.15,0,0,1,.85-.35,1.11,1.11,0,0,1,.84.35,1.18,1.18,0,0,1,.35.86,1.16,1.16,0,0,1-.35.86,1.14,1.14,0,0,1-.84.34A1.18,1.18,0,0,1,102.42,35.66Z"/><path class="cls-2" d="M117.65,49.88a3.31,3.31,0,0,1-1.22.65,5.09,5.09,0,0,1-1.5.22,3.92,3.92,0,0,1-2.9-1,3.83,3.83,0,0,1-1-2.88V40.05h-2.11V38.2H111V35.48h2.24V38.2h3.56v1.85h-3.56v6.72a2.18,2.18,0,0,0,.51,1.55,1.89,1.89,0,0,0,1.44.53,2.7,2.7,0,0,0,1.75-.58Z"/><path class="cls-2" d="M131.11,45.15H121a3.88,3.88,0,0,0,1.44,2.64,4.72,4.72,0,0,0,3.06,1,4.63,4.63,0,0,0,3.58-1.49l1.24,1.45a5.53,5.53,0,0,1-2.1,1.5,7.91,7.91,0,0,1-6.28-.3,5.78,5.78,0,0,1-2.36-2.26,6.91,6.91,0,0,1,0-6.53,5.81,5.81,0,0,1,2.22-2.26,6.34,6.34,0,0,1,3.2-.81,6.15,6.15,0,0,1,3.17.81,5.65,5.65,0,0,1,2.18,2.26,6.94,6.94,0,0,1,.79,3.33C131.16,44.65,131.14,44.87,131.11,45.15ZM122.32,41A4,4,0,0,0,121,43.54h8A4,4,0,0,0,127.73,41a4.21,4.21,0,0,0-5.41,0Z"/><path class="cls-2" d="M144.08,38.88a5.76,5.76,0,0,1,2.24,2.22,7.17,7.17,0,0,1,0,6.62A5.72,5.72,0,0,1,144.08,50a6.42,6.42,0,0,1-3.23.8,5.89,5.89,0,0,1-2.53-.54,4.87,4.87,0,0,1-1.89-1.57v2h-2.16V33.24h2.25v6.83a4.74,4.74,0,0,1,1.87-1.48,5.89,5.89,0,0,1,2.46-.51A6.53,6.53,0,0,1,144.08,38.88Zm-1.27,9.35a4,4,0,0,0,1.5-1.54,5,5,0,0,0,0-4.57,3.94,3.94,0,0,0-1.5-1.53,4.51,4.51,0,0,0-4.28,0,3.81,3.81,0,0,0-1.5,1.53,5.19,5.19,0,0,0,0,4.57,3.84,3.84,0,0,0,1.5,1.54,4.44,4.44,0,0,0,4.28,0Z"/><path class="cls-2" d="M152.23,49.93a6,6,0,0,1-2.3-2.26,6.77,6.77,0,0,1,0-6.53,5.86,5.86,0,0,1,2.3-2.25,6.81,6.81,0,0,1,3.33-.81,6.73,6.73,0,0,1,3.31.81,5.83,5.83,0,0,1,2.29,2.25,6.77,6.77,0,0,1,0,6.53,5.92,5.92,0,0,1-2.29,2.26,6.63,6.63,0,0,1-3.31.82A6.71,6.71,0,0,1,152.23,49.93Zm5.47-1.7a3.88,3.88,0,0,0,1.49-1.54,5.19,5.19,0,0,0,0-4.57,3.85,3.85,0,0,0-1.49-1.53,4.53,4.53,0,0,0-4.29,0,3.85,3.85,0,0,0-1.49,1.53,5,5,0,0,0,0,4.57,3.88,3.88,0,0,0,1.49,1.54,4.46,4.46,0,0,0,4.29,0Z"/><path class="cls-2" d="M169,38.64a6.32,6.32,0,0,1,2.78-.56v2.18a3.56,3.56,0,0,0-.51,0,3.76,3.76,0,0,0-2.87,1.09,4.32,4.32,0,0,0-1,3.1v6.18h-2.25V38.2h2.15v2.08A3.9,3.9,0,0,1,169,38.64Z"/><path class="cls-2" d="M186.3,38.2V48.92a6.46,6.46,0,0,1-1.61,4.82,6.75,6.75,0,0,1-4.83,1.55,11.6,11.6,0,0,1-3.35-.48,6.49,6.49,0,0,1-2.57-1.37L175,51.71a6.29,6.29,0,0,0,2.14,1.18,8.11,8.11,0,0,0,2.63.44,4.45,4.45,0,0,0,3.22-1,4.23,4.23,0,0,0,1-3.14v-1a4.9,4.9,0,0,1-2,1.45,6.5,6.5,0,0,1-2.52.47,6.77,6.77,0,0,1-3.22-.76,5.59,5.59,0,0,1-2.26-2.13,6.36,6.36,0,0,1,0-6.25,5.63,5.63,0,0,1,2.26-2.12,6.88,6.88,0,0,1,3.22-.75,6.44,6.44,0,0,1,2.61.52,4.76,4.76,0,0,1,2,1.52V38.2ZM182,47.61a3.77,3.77,0,0,0,1.52-1.44,4,4,0,0,0,.55-2.09,3.83,3.83,0,0,0-1.19-2.92,4.83,4.83,0,0,0-6.16,0,3.8,3.8,0,0,0-1.2,2.92,4,4,0,0,0,.55,2.09,3.79,3.79,0,0,0,1.53,1.44,4.91,4.91,0,0,0,4.4,0Z"/><rect class="cls-2" y="42.41" width="69.15" height="1.58"/><rect class="cls-2" x="194.5" y="42.41" width="69.15" height="1.58"/></g></g></svg>