<svg xmlns="http://www.w3.org/2000/svg" viewBox="0 0 222.59 51.7"><defs><style>.cls-1{fill:#777;}.cls-2{fill:#c9ba2d;}.cls-3{fill:#c9ba2c;}</style></defs><g id="Ebene_2" data-name="Ebene 2"><g id="Ebene_1-2" data-name="Ebene 1"><path class="cls-1" d="M6.08,10.15h7q5,0,5,4.48a11.05,11.05,0,0,1-.22,2.11l-.91,4.71a5.77,5.77,0,0,1-3.32,4.35c1.48.85,2,2.31,1.63,4.36l-.93,4.72Q13,41.45,6.67,41.46H0ZM7.12,28,5.38,37h2a2.26,2.26,0,0,0,2.37-2.13l.93-4.72c.19-1-.09-1.66-.85-2A3.86,3.86,0,0,0,8.54,28ZM9.73,14.6,8,23.57H9.42a4.29,4.29,0,0,0,1.3-.13,2.48,2.48,0,0,0,1.63-2l.91-4.71c.28-1.43-.24-2.14-1.55-2.14Z"/><path class="cls-1" d="M23.46,28,22,35.38c-.28,1.41.24,2.12,1.55,2.12A2.27,2.27,0,0,0,26,35.38l.83-4.21h4.52l-.83,4.21Q29.21,41.95,22.71,42q-5.41,0-5.41-4.6a10.54,10.54,0,0,1,.21-2l3.73-19.15Q22.52,9.66,29,9.65c3.61,0,5.42,1.54,5.42,4.6a10.44,10.44,0,0,1-.21,2L31.92,28Zm.86-4.47h3.94l1.44-7.34c.26-1.41-.26-2.11-1.57-2.12h0a2.22,2.22,0,0,0-2.34,2.12Z"/><path class="cls-1" d="M45.21,10.15H48.7l-.86,4.45H44.35L39.13,41.46H34.61L39.83,14.6H36.59l.86-4.45h3.24L42.67,0h4.52Z"/><path class="cls-1" d="M58.85,35.38Q57.58,41.95,51.08,42q-5.41,0-5.41-4.6a10.54,10.54,0,0,1,.21-2l3.73-19.15q1.28-6.57,7.76-6.58c3.61,0,5.42,1.54,5.42,4.6a11.25,11.25,0,0,1-.2,2Zm-.78-19.15c.27-1.41-.26-2.11-1.56-2.12h0a2.23,2.23,0,0,0-2.34,2.12L50.39,35.38c-.27,1.41.24,2.12,1.55,2.12a2.28,2.28,0,0,0,2.4-2.12Z"/><path class="cls-1" d="M65.7,41.46H61.18l4.9-25.23q1.28-6.57,7.76-6.58c3.61,0,5.42,1.54,5.42,4.6a10.44,10.44,0,0,1-.21,2L74.16,41.46H69.64l4.9-25.23c.27-1.41-.24-2.11-1.55-2.12h0a2.25,2.25,0,0,0-2.36,2.12Z"/><path class="cls-1" d="M89.92,45.11q-1.28,6.6-7.75,6.59-5.43,0-5.43-4.61a10.61,10.61,0,0,1,.21-2L77.17,44h4.52l-.23,1.13c-.27,1.42.25,2.12,1.57,2.12a2.26,2.26,0,0,0,2.38-2.12l.73-3.8A3.83,3.83,0,0,1,84,42q-6.48,0-5.18-6.59l3.71-19.15q1.29-6.57,7.76-6.58c3.62,0,5.43,1.54,5.43,4.6a10.44,10.44,0,0,1-.21,2Zm-2.63-9.7L91,16.23c.28-1.41-.24-2.11-1.55-2.12h0a2.25,2.25,0,0,0-2.36,2.12L83.36,35.38c-.27,1.41.24,2.12,1.55,2.12A2.26,2.26,0,0,0,87.29,35.41Z"/><path class="cls-2" d="M135.89,10.15h4.52l.75,18.16,3.52-18.16h4.18l-6.08,31.31h-4.51l-.7-17.59-3.42,17.59h-4.34Z"/><path class="cls-2" d="M161.15,10.15h4.52l-6.8,35q-1.27,6.6-7.76,6.59-5.42,0-5.42-4.61a10.61,10.61,0,0,1,.21-2l.22-1.13h4.51l-.22,1.13c-.28,1.42.25,2.12,1.57,2.12a2.26,2.26,0,0,0,2.37-2.12l.74-3.8A3.85,3.85,0,0,1,153,42q-6.48,0-5.19-6.59l4.9-25.23h4.52l-4.9,25.23c-.28,1.41.24,2.12,1.55,2.12a2.26,2.26,0,0,0,2.38-2.09Z"/><path class="cls-2" d="M176.5,15.91q.21-1.78-1.59-1.8h0a2.26,2.26,0,0,0-2.36,2.12l-4.9,25.23H163.1L168,16.23q1.27-6.57,7.75-6.58a6.25,6.25,0,0,1,4,1.11,8.19,8.19,0,0,1,4.42-1.11c3.62,0,5.43,1.54,5.43,4.6a10.44,10.44,0,0,1-.21,2l-4.9,25.23H180l4.9-25.23c.27-1.41-.24-2.11-1.55-2.12h0a2.19,2.19,0,0,0-2.29,1.8l-5,25.55h-4.53Z"/><path class="cls-2" d="M201.38,16.23c.28-1.42-.23-2.12-1.53-2.12h0a2.28,2.28,0,0,0-2.38,2.12l-.82,4.21h-4.51l.81-4.21q1.28-6.57,7.77-6.58c3.61,0,5.41,1.54,5.41,4.6a11.25,11.25,0,0,1-.2,2l-3.72,19.15Q200.91,42,194.42,42,189,42,189,37.36a11.25,11.25,0,0,1,.2-2l1-5.25q1.28-6.57,6.24-6.59a4.88,4.88,0,0,1,3.3,1Zm-7.66,19.15c-.28,1.41.25,2.12,1.56,2.12a2.27,2.27,0,0,0,2.38-2.12l1-5.27c.27-1.4-.25-2.1-1.54-2.1a2.28,2.28,0,0,0-2.4,2.12Z"/><path class="cls-2" d="M209,41.46h-4.51l4.9-25.23q1.28-6.57,7.75-6.58c3.62,0,5.43,1.54,5.43,4.6a10.44,10.44,0,0,1-.21,2l-4.9,25.23H213l4.89-25.23c.28-1.41-.23-2.11-1.54-2.12h0a2.26,2.26,0,0,0-2.36,2.12Z"/><polygon class="cls-3" points="108.58 41.46 97.72 41.46 103.16 10.15 114.03 10.15 108.58 41.46"/><polygon class="cls-1" points="122.39 41.46 111.53 41.46 116.97 10.15 127.84 10.15 122.39 41.46"/></g></g></svg>