<svg xmlns="http://www.w3.org/2000/svg" viewBox="0 0 426.92 223.39"><defs><style>.cls-1{fill:#ed8571;}.cls-2{fill:#36495e;}.cls-3{fill:#fff;}</style></defs><g id="Layer_2" data-name="Layer 2"><g id="Layer_1-2" data-name="Layer 1"><rect class="cls-1" x="203.66" y="0.12" width="223.14" height="223.14" rx="50.4"/><path class="cls-1" d="M376.39.25a50.43,50.43,0,0,1,50.28,50.28V172.86a50.43,50.43,0,0,1-50.28,50.28H254.06a50.43,50.43,0,0,1-50.28-50.28V50.53A50.43,50.43,0,0,1,254.06.25H376.39m0-.25H254.06a50.59,50.59,0,0,0-50.53,50.53V172.86a50.59,50.59,0,0,0,50.53,50.53H376.39a50.58,50.58,0,0,0,50.53-50.53V50.53A50.58,50.58,0,0,0,376.39,0Z"/><rect class="cls-2" y="52.24" width="426.61" height="127.42" rx="38.5"/><path class="cls-3" d="M0,142.79V89.11H19.75a37.49,37.49,0,0,1,9.47,1,18.17,18.17,0,0,1,6.37,2.91,11,11,0,0,1,3.59,4.57,15.44,15.44,0,0,1,1.13,6,11.92,11.92,0,0,1-.52,3.48,10,10,0,0,1-1.62,3.15,12.16,12.16,0,0,1-2.84,2.67A18.14,18.14,0,0,1,31.17,115q5.31,1.29,7.85,4.18a10.88,10.88,0,0,1,2.54,7.43A15.24,15.24,0,0,1,40.23,133a14.55,14.55,0,0,1-3.88,5.14A18.67,18.67,0,0,1,30,141.56a27.61,27.61,0,0,1-8.59,1.23ZM12.45,111.7h6.49a21.07,21.07,0,0,0,3.72-.3,7.91,7.91,0,0,0,2.82-1,4.8,4.8,0,0,0,1.77-2,7.68,7.68,0,0,0,.6-3.24,9.12,9.12,0,0,0-.48-3.19,4.58,4.58,0,0,0-1.47-2,6.08,6.08,0,0,0-2.52-1.11,17.42,17.42,0,0,0-3.63-.33h-7.3Zm0,8.32V133.4h8.77a11,11,0,0,0,4-.63,6.47,6.47,0,0,0,2.45-1.62,5.43,5.43,0,0,0,1.21-2.25,9.89,9.89,0,0,0,.33-2.54,8.69,8.69,0,0,0-.38-2.65,4.36,4.36,0,0,0-1.33-2,6.55,6.55,0,0,0-2.49-1.26,14.65,14.65,0,0,0-3.9-.44Z"/><path class="cls-3" d="M75.09,122.38v20.41H62.63V122.38L43.18,89.11h11a4,4,0,0,1,2.58.76,5.61,5.61,0,0,1,1.55,1.93l7.58,15.62c.62,1.25,1.18,2.41,1.7,3.46s1,2.1,1.36,3.14a27.73,27.73,0,0,1,1.33-3.17c.51-1.06,1.07-2.2,1.66-3.43L79.43,91.8a4.66,4.66,0,0,1,.61-1,4.84,4.84,0,0,1,.89-.86,4.18,4.18,0,0,1,1.14-.63,4,4,0,0,1,1.42-.24H94.54Z"/><path class="cls-3" d="M120.55,133.8a21.54,21.54,0,0,0,4.57-.44,23.23,23.23,0,0,0,3.76-1.18V124h-5.31a2.55,2.55,0,0,1-1.84-.63,2.08,2.08,0,0,1-.66-1.58V115h19.08v22.66a28,28,0,0,1-4.29,2.6A28.37,28.37,0,0,1,131.1,142a36,36,0,0,1-5.37,1,53.68,53.68,0,0,1-6.14.33,28.07,28.07,0,0,1-10.9-2.08,26.14,26.14,0,0,1-14.43-14.44,28.3,28.3,0,0,1-2.08-10.93,29.65,29.65,0,0,1,2-11,24.81,24.81,0,0,1,5.69-8.68,25.83,25.83,0,0,1,9-5.67,32.46,32.46,0,0,1,11.74-2,34.12,34.12,0,0,1,6.3.55,31.78,31.78,0,0,1,5.43,1.51,24.51,24.51,0,0,1,4.55,2.29,24.12,24.12,0,0,1,3.69,2.87l-3.61,5.49a4.11,4.11,0,0,1-1.24,1.22,3,3,0,0,1-1.56.44,4.35,4.35,0,0,1-2.29-.74c-1-.59-1.91-1.1-2.78-1.53a16.81,16.81,0,0,0-2.67-1.05A18.46,18.46,0,0,0,123.5,99a28.93,28.93,0,0,0-3.39-.18,15.46,15.46,0,0,0-6.3,1.23,13.53,13.53,0,0,0-4.77,3.49,15.5,15.5,0,0,0-3,5.39,21.55,21.55,0,0,0-1.07,7,22.49,22.49,0,0,0,1.18,7.59,16.15,16.15,0,0,0,3.26,5.6,13.8,13.8,0,0,0,4.93,3.48A16,16,0,0,0,120.55,133.8Z"/><path class="cls-3" d="M173,133.8a21.54,21.54,0,0,0,4.57-.44,22.92,22.92,0,0,0,3.76-1.18V124H176a2.57,2.57,0,0,1-1.84-.63,2.08,2.08,0,0,1-.66-1.58V115h19.08v22.66a27.1,27.1,0,0,1-4.29,2.6,28.59,28.59,0,0,1-4.75,1.79,36.13,36.13,0,0,1-5.38,1,53.56,53.56,0,0,1-6.14.33,28.07,28.07,0,0,1-10.9-2.08,26.69,26.69,0,0,1-8.68-5.75,26.34,26.34,0,0,1-5.74-8.69,28.3,28.3,0,0,1-2.09-10.93,29.85,29.85,0,0,1,2-11,24.83,24.83,0,0,1,5.7-8.68,25.74,25.74,0,0,1,8.95-5.67,32.37,32.37,0,0,1,11.73-2,34,34,0,0,1,6.3.55,31.9,31.9,0,0,1,5.44,1.51,24.82,24.82,0,0,1,4.55,2.29A24.52,24.52,0,0,1,193,95.74l-3.61,5.49a4,4,0,0,1-1.23,1.22,3,3,0,0,1-1.57.44,4.29,4.29,0,0,1-2.28-.74c-1-.59-1.91-1.1-2.79-1.53a16.81,16.81,0,0,0-2.67-1.05A18.22,18.22,0,0,0,176,99a28.93,28.93,0,0,0-3.39-.18,15.53,15.53,0,0,0-6.3,1.23,13.53,13.53,0,0,0-4.77,3.49,15.67,15.67,0,0,0-3,5.39,21.82,21.82,0,0,0-1.07,7,22.49,22.49,0,0,0,1.18,7.59,16.31,16.31,0,0,0,3.26,5.6,13.75,13.75,0,0,0,4.94,3.48A15.92,15.92,0,0,0,173,133.8Z"/><path class="cls-1" d="M222.34,89.18a3.76,3.76,0,0,1,1,.28,3.72,3.72,0,0,1,.85.57,10.85,10.85,0,0,1,.92,1l25.49,32.23c-.1-1-.17-2-.22-3s-.07-1.88-.07-2.74V89.11h11v53.68H254.8a6,6,0,0,1-2.43-.44,5.39,5.39,0,0,1-1.92-1.62l-25.31-32c.08.93.14,1.85.19,2.74s.07,1.74.07,2.53v28.77h-11V89.11H221A10.36,10.36,0,0,1,222.34,89.18Z"/><path class="cls-1" d="M323.11,115.93a28.82,28.82,0,0,1-2,10.83,25.61,25.61,0,0,1-14.44,14.52,32.07,32.07,0,0,1-22.83,0,25.58,25.58,0,0,1-14.49-14.52,30.18,30.18,0,0,1,0-21.66A25.75,25.75,0,0,1,275,96.4a26.25,26.25,0,0,1,8.82-5.78,30.06,30.06,0,0,1,11.43-2.1,29.71,29.71,0,0,1,11.4,2.12,26.37,26.37,0,0,1,8.78,5.8,25.87,25.87,0,0,1,5.66,8.7A28.72,28.72,0,0,1,323.11,115.93Zm-12.75,0a23.1,23.1,0,0,0-1-7.16,15.14,15.14,0,0,0-3-5.4,12.73,12.73,0,0,0-4.73-3.39,16.22,16.22,0,0,0-6.37-1.18,16.42,16.42,0,0,0-6.43,1.18,12.76,12.76,0,0,0-4.76,3.39,15,15,0,0,0-3,5.4,25.54,25.54,0,0,0,0,14.36,15,15,0,0,0,3,5.4,12.49,12.49,0,0,0,4.76,3.37,16.61,16.61,0,0,0,6.43,1.16,16.41,16.41,0,0,0,6.37-1.16,12.46,12.46,0,0,0,4.73-3.37,15.14,15.14,0,0,0,3-5.4A23.22,23.22,0,0,0,310.36,115.93Z"/><path class="cls-1" d="M341.53,122.93v19.86H329.08V89.11h17.46a35.78,35.78,0,0,1,9.93,1.2,18.69,18.69,0,0,1,6.7,3.33,12.64,12.64,0,0,1,3.78,5,16.64,16.64,0,0,1,1.18,6.34,16.84,16.84,0,0,1-.7,4.93,15.15,15.15,0,0,1-2.08,4.3,16.07,16.07,0,0,1-3.39,3.51,17.93,17.93,0,0,1-4.63,2.55,11.27,11.27,0,0,1,2.34,1.54,9.29,9.29,0,0,1,1.9,2.25L373,142.79H361.72a4.8,4.8,0,0,1-4.5-2.36l-8.91-15.58a3.83,3.83,0,0,0-1.38-1.48,4.69,4.69,0,0,0-2.23-.44Zm0-8.58h5a12.82,12.82,0,0,0,4.33-.65,7.83,7.83,0,0,0,2.93-1.78,7,7,0,0,0,1.66-2.68A10.27,10.27,0,0,0,356,106a6.94,6.94,0,0,0-2.3-5.53c-1.54-1.33-3.91-2-7.13-2h-5Z"/><path class="cls-1" d="M426.78,115.93a28.32,28.32,0,0,1-2,10.74,25.12,25.12,0,0,1-5.66,8.51,25.56,25.56,0,0,1-8.79,5.6,31,31,0,0,1-11.4,2H378.08V89.11h20.85a30.8,30.8,0,0,1,11.4,2,25.85,25.85,0,0,1,8.79,5.6,24.94,24.94,0,0,1,5.66,8.49A28.22,28.22,0,0,1,426.78,115.93Zm-12.74,0a23.26,23.26,0,0,0-1-7.18,15.25,15.25,0,0,0-3-5.44,13,13,0,0,0-4.74-3.42,16,16,0,0,0-6.37-1.2H390.6v34.52h8.33a16,16,0,0,0,6.37-1.2,12.84,12.84,0,0,0,4.74-3.42,15.25,15.25,0,0,0,3-5.44A23.39,23.39,0,0,0,414,115.93Z"/></g></g></svg>