<svg xmlns="http://www.w3.org/2000/svg" viewBox="0 0 168.66 93.89"><defs><style>.cls-1{fill:#5c539f;}</style></defs><g id="Ebene_2" data-name="Ebene 2"><g id="Ebene_1-2" data-name="Ebene 1"><path class="cls-1" d="M42.46,28.18q-3.28-2.8-9.31-2.8v23q6,0,9.31-2.85t3.29-8.7C45.75,32.94,44.65,30.06,42.46,28.18Z"/><path class="cls-1" d="M82.73,26.62a3.71,3.71,0,0,0,.8-2.37,2.62,2.62,0,0,0-3-3,3,3,0,0,0-2.21.84,2.88,2.88,0,0,0-.84,2.12A4.65,4.65,0,0,0,78,26.38a9.22,9.22,0,0,0,2,2.37A10.31,10.31,0,0,0,82.73,26.62Z"/><path class="cls-1" d="M48.6,21.85q-6-5.3-17.69-5.3H24.09V57.22h6.82q11.7,0,17.69-5.33t6-15Q54.57,27.14,48.6,21.85ZM46.75,50.64Q41.1,55.31,30.91,55.3H26.17V18.48h4.74q10.19,0,15.84,4.61t5.66,13.76Q52.41,46,46.75,50.64Z"/><path class="cls-1" d="M110.06,75.05a2,2,0,0,0-2.28-2.1h-3v4.19h3A2,2,0,0,0,110.06,75.05Z"/><polygon class="cls-1" points="39.5 79.39 43.83 79.39 41.67 73.3 39.5 79.39"/><path class="cls-1" d="M33.73,75.05A2,2,0,0,0,31.45,73H28.4v4.19h3.05A2,2,0,0,0,33.73,75.05Z"/><path class="cls-1" d="M0,0V93.89H168.66V0ZM23.09,82.6l-3.33-5.8-2.47,3V82.6h-.78V72.26h.78v6.46l5.24-6.46h.95l-3.2,3.95L24,82.6Zm10.62,0-2.47-4.77H28.4V82.6h-.79V72.26h3.94a2.8,2.8,0,0,1,.58,5.56l2.5,4.78ZM45,82.6l-.9-2.52H39.26l-.9,2.52h-.85l3.81-10.34H42l3.8,10.34Zm11.93,0h-.78l-6-9v9h-.78V72.26h.78l6,9v-9h.78Zm11.88-3.36a3.55,3.55,0,0,1-7.09,0v-7h.79v6.88a2.76,2.76,0,1,0,5.52,0V72.26h.78ZM79.37,73H76.28V82.6H75.5V73H72.42v-.69h7ZM90.1,82.6h-.78V77.73H83.93V82.6h-.78V72.26h.78V77h5.39V72.26h.78Zm7.32-4.29V82.6h-.79V78.31l-3-6h.85l2.62,5.22,2.57-5.22h.85Zm12.63,4.29-2.47-4.77h-2.84V82.6H104V72.26h3.94a2.8,2.8,0,0,1,.58,5.56L111,82.6Zm12.72,0H122l-6-9v9h-.79V72.26H116l6,9v-9h.79Zm5.72,0h-.79V72.26h.79Zm12.47,0h-.78l-6-9v9h-.79V72.26h.79l6,9v-9H141ZM152.59,79a3.36,3.36,0,0,1-.84,2.5,3.69,3.69,0,0,1-5.3.13c-.95-.94-1-1.86-1-4.19s0-3.26,1-4.2A3.65,3.65,0,0,1,149,72.17a3.48,3.48,0,0,1,3.53,3h-.78a2.79,2.79,0,0,0-4.71-1.52c-.74.74-.8,1.53-.8,3.76s.06,3,.8,3.76a2.8,2.8,0,0,0,4.11-.21,3,3,0,0,0,.63-2V78H149v-.7h3.56Zm0-15.35H135.42V43.83h-9.54V63.64H108.79V52.06c-.05.06-.1.13-.16.19a44.28,44.28,0,0,1-4.33,4.09,53.9,53.9,0,0,1-4.45,3.17,33.83,33.83,0,0,1-5.37,2.76,39,39,0,0,1-6.3,2A32.23,32.23,0,0,1,81,65a32.34,32.34,0,0,1-9.54-1.24,19.13,19.13,0,0,1-6.62-3.41A13.3,13.3,0,0,1,61,55.22a16.14,16.14,0,0,1-1.2-5.49,21.53,21.53,0,0,1-5.54,7.09,27.29,27.29,0,0,1-9.95,5.09,47.87,47.87,0,0,1-13.43,1.73H16.07V10.14H30.91a49.08,49.08,0,0,1,13.43,1.68,26.93,26.93,0,0,1,9.95,5.05,21.82,21.82,0,0,1,6.18,8.39,29.59,29.59,0,0,1,2.12,11.59c0,1.06,0,2.09-.13,3.09a19.8,19.8,0,0,1,5.35-5,17.18,17.18,0,0,1-3-4.65,13.7,13.7,0,0,1-1.21-5.78,15.22,15.22,0,0,1,4.82-11.23A16,16,0,0,1,73.66,10a18.22,18.22,0,0,1,6.58-1.17,20,20,0,0,1,7.14,1.21,16.43,16.43,0,0,1,5.49,3.32,14.13,14.13,0,0,1,3.49,5.06,16.65,16.65,0,0,1,1.2,6.37A12,12,0,0,1,95.4,32a23.39,23.39,0,0,1-5.21,5.3l7.29,6.09c.65-.64,1.27-1.31,1.89-2s1.38-1.63,2.29-2.81l7.13,6.07V10.14h17.09v18.2h9.54V10.14h17.17Z"/><path class="cls-1" d="M76.47,47.68A3.09,3.09,0,0,0,78,50.52a6.51,6.51,0,0,0,3.45.93,14.74,14.74,0,0,0,2.45-.21,12.55,12.55,0,0,0,2.36-.6l-7.78-6.57A4.45,4.45,0,0,0,76.47,47.68Z"/><polygon class="cls-1" points="118.9 16.55 116.82 16.55 116.82 57.22 118.9 57.22 118.9 36.93 142.48 36.93 142.48 57.22 144.57 57.22 144.57 16.55 142.48 16.55 142.48 35 118.9 35 118.9 16.55"/><path class="cls-1" d="M100.21,49a26.74,26.74,0,0,1-3,2.49,33.69,33.69,0,0,1-6.89,3.65,25.17,25.17,0,0,1-9.39,1.64A18.56,18.56,0,0,1,77,56.3a11.72,11.72,0,0,1-3.65-1.45,8.32,8.32,0,0,1-2.73-2.68,7.45,7.45,0,0,1-1.08-4.09,7.8,7.8,0,0,1,2-5.58,19.33,19.33,0,0,1,5.61-3.89l2.41-1.2L92,47.84l1.52-1.05L81.28,36.53a28.7,28.7,0,0,0,7.06-5.18A9.4,9.4,0,0,0,91,24.57a8.72,8.72,0,0,0-.85-3.85,9.13,9.13,0,0,0-2.28-3,10.44,10.44,0,0,0-3.41-1.93,12.86,12.86,0,0,0-4.21-.68,10.91,10.91,0,0,0-3.77.68,10.73,10.73,0,0,0-3.29,1.93,9.29,9.29,0,0,0-2.29,3,9.05,9.05,0,0,0-.84,3.93,9,9,0,0,0,1.61,5.26A23.56,23.56,0,0,0,76,34.44l2,1.69-1.92,1a27.22,27.22,0,0,0-3.33,2,14,14,0,0,0-2.69,2.41,10.92,10.92,0,0,0-1.8,3,10.07,10.07,0,0,0,.44,8.3,9.79,9.79,0,0,0,3,3.29,13.22,13.22,0,0,0,4.25,1.92,19.08,19.08,0,0,0,5,.64,25.93,25.93,0,0,0,9.87-1.76,37.33,37.33,0,0,0,7.38-3.93,34,34,0,0,0,6.33-5.78l-1.52-1A35.57,35.57,0,0,1,100.21,49ZM77.27,33.16a15.65,15.65,0,0,1-4.17-4.62,8.59,8.59,0,0,1-1-3.81,7.33,7.33,0,0,1,2.24-5.53A8.11,8.11,0,0,1,80.24,17a10.48,10.48,0,0,1,3.17.49A8.26,8.26,0,0,1,86.17,19a7.57,7.57,0,0,1,2,2.37,6.66,6.66,0,0,1,.76,3.24,8.07,8.07,0,0,1-2.4,6.14,29.61,29.61,0,0,1-6.74,4.53Z"/></g></g></svg>